<mxfile host="app.diagrams.net" agent="Mozilla/5.0 (Windows NT 10.0; Win64; x64) AppleWebKit/537.36 (KHTML, like Gecko) Chrome/141.0.0.0 Safari/537.36" version="28.2.8">
  <diagram id="6a731a19-8d31-9384-78a2-239565b7b9f0" name="Page-1">
    <mxGraphModel dx="2593" dy="1362" grid="1" gridSize="10" guides="1" tooltips="1" connect="1" arrows="1" fold="1" page="1" pageScale="1" pageWidth="827" pageHeight="1169" background="none" math="0" shadow="0">
      <root>
        <mxCell id="0" />
        <mxCell id="1" parent="0" />
        <mxCell id="8mqi0Wb3uONjZXPuttcm-2292" value="" style="rounded=1;whiteSpace=wrap;html=1;strokeColor=none;fillColor=#BAC8D3;fontSize=24;fontColor=#23445D;align=center;opacity=60;" vertex="1" parent="1">
          <mxGeometry x="600" y="519.5" width="390" height="270.5" as="geometry" />
        </mxCell>
        <mxCell id="2086" value="" style="rounded=1;whiteSpace=wrap;html=1;strokeColor=none;fillColor=#BAC8D3;fontSize=24;fontColor=#23445D;align=center;opacity=60;" parent="1" vertex="1">
          <mxGeometry x="212.5" y="450" width="287.5" height="160" as="geometry" />
        </mxCell>
        <mxCell id="2093" value="" style="rounded=1;whiteSpace=wrap;html=1;strokeColor=none;fillColor=#BAC8D3;fontSize=24;fontColor=#23445D;align=center;opacity=60;" parent="1" vertex="1">
          <mxGeometry x="28" y="650" width="302" height="430" as="geometry" />
        </mxCell>
        <mxCell id="2095" value="" style="rounded=1;whiteSpace=wrap;html=1;strokeColor=none;fillColor=#BAC8D3;fontSize=24;fontColor=#23445D;align=center;opacity=60;" parent="1" vertex="1">
          <mxGeometry x="30.5" y="20" width="609.5" height="380" as="geometry" />
        </mxCell>
        <mxCell id="2158" value="" style="edgeStyle=elbowEdgeStyle;elbow=horizontal;endArrow=none;html=1;strokeColor=#23445D;endFill=0;strokeWidth=4;rounded=1;exitX=0.446;exitY=0.556;exitDx=0;exitDy=0;exitPerimeter=0;" parent="1" target="2099" edge="1" source="2107">
          <mxGeometry width="100" height="100" relative="1" as="geometry">
            <mxPoint x="337" y="210" as="sourcePoint" />
            <mxPoint x="337.33333333333337" y="156.94444444444446" as="targetPoint" />
            <Array as="points">
              <mxPoint x="370" y="180" />
            </Array>
          </mxGeometry>
        </mxCell>
        <mxCell id="2159" value="" style="edgeStyle=elbowEdgeStyle;elbow=horizontal;endArrow=none;html=1;strokeColor=#23445D;endFill=0;strokeWidth=4;rounded=1;exitX=0.404;exitY=0.468;exitDx=0;exitDy=0;exitPerimeter=0;" parent="1" target="2100" edge="1" source="2107">
          <mxGeometry width="100" height="100" relative="1" as="geometry">
            <mxPoint x="267" y="210" as="sourcePoint" />
            <mxPoint x="266.80555555555554" y="156.94444444444446" as="targetPoint" />
            <Array as="points">
              <mxPoint x="300" y="230" />
            </Array>
          </mxGeometry>
        </mxCell>
        <mxCell id="2160" value="" style="edgeStyle=elbowEdgeStyle;elbow=horizontal;endArrow=none;html=1;strokeColor=#23445D;endFill=0;strokeWidth=4;rounded=1;exitX=0.472;exitY=0.514;exitDx=0;exitDy=0;exitPerimeter=0;entryX=1;entryY=0.5;entryDx=0;entryDy=0;entryPerimeter=0;" parent="1" target="2097" edge="1" source="2107">
          <mxGeometry width="100" height="100" relative="1" as="geometry">
            <mxPoint x="199" y="210" as="sourcePoint" />
            <mxPoint x="198.80555555555554" y="156.94444444444446" as="targetPoint" />
            <Array as="points">
              <mxPoint x="230" y="190" />
            </Array>
          </mxGeometry>
        </mxCell>
        <mxCell id="2172" style="edgeStyle=none;rounded=1;html=1;strokeColor=#23445D;endArrow=none;endFill=0;strokeWidth=4;entryX=0.784;entryY=0.347;entryDx=0;entryDy=0;entryPerimeter=0;exitX=0.489;exitY=0.52;exitDx=0;exitDy=0;exitPerimeter=0;" parent="1" source="8mqi0Wb3uONjZXPuttcm-2284" target="8mqi0Wb3uONjZXPuttcm-2258" edge="1">
          <mxGeometry relative="1" as="geometry">
            <mxPoint x="320" y="580" as="sourcePoint" />
            <mxPoint x="235" y="554.9529780564264" as="targetPoint" />
          </mxGeometry>
        </mxCell>
        <mxCell id="2201" style="rounded=1;html=1;strokeColor=#23445D;endArrow=none;endFill=0;strokeWidth=4;exitX=0.474;exitY=0.486;exitDx=0;exitDy=0;exitPerimeter=0;entryX=0.651;entryY=0.505;entryDx=0;entryDy=0;entryPerimeter=0;" parent="1" source="2133" target="2135" edge="1">
          <mxGeometry relative="1" as="geometry" />
        </mxCell>
        <mxCell id="2226" value="&lt;font color=&quot;#23445d&quot;&gt;Company Local Area Network&lt;/font&gt;" style="rounded=1;whiteSpace=wrap;html=1;strokeColor=none;fillColor=none;fontSize=14;fontColor=#742B21;align=center;fontStyle=1" parent="1" vertex="1">
          <mxGeometry x="347" y="401" width="225" height="19" as="geometry" />
        </mxCell>
        <mxCell id="2233" value="Home Local Area Network" style="rounded=1;whiteSpace=wrap;html=1;strokeColor=none;fillColor=none;fontSize=14;fontColor=#23445D;align=center;fontStyle=1" parent="1" vertex="1">
          <mxGeometry x="75" y="1087" width="196" height="19" as="geometry" />
        </mxCell>
        <mxCell id="2257" style="edgeStyle=orthogonalEdgeStyle;curved=1;rounded=0;jumpStyle=none;html=1;exitX=0.75;exitY=0;entryX=0.75;entryY=0;shadow=0;labelBackgroundColor=#ffffff;startArrow=none;startFill=0;endArrow=none;endFill=0;endSize=10;jettySize=auto;orthogonalLoop=1;strokeColor=#23445D;strokeWidth=2;fillColor=#F08705;fontFamily=Helvetica;fontSize=25;fontColor=#23445D;align=left;" parent="1" edge="1">
          <mxGeometry relative="1" as="geometry">
            <mxPoint x="813.75" y="434" as="sourcePoint" />
            <mxPoint x="813.75" y="434" as="targetPoint" />
          </mxGeometry>
        </mxCell>
        <mxCell id="8mqi0Wb3uONjZXPuttcm-2264" style="rounded=1;html=1;entryX=1;entryY=0.67;entryPerimeter=0;strokeColor=#23445D;endArrow=none;endFill=0;strokeWidth=4;entryDx=0;entryDy=0;" edge="1" parent="1">
          <mxGeometry relative="1" as="geometry">
            <mxPoint x="189" y="707" as="sourcePoint" />
            <mxPoint x="143" y="802.21" as="targetPoint" />
          </mxGeometry>
        </mxCell>
        <mxCell id="8mqi0Wb3uONjZXPuttcm-2265" value="" style="points=[[0.005,0.09,0],[0.08,0,0],[0.76,0.25,0],[1,0.92,0],[0.91,0.995,0],[0.57,0.995,0],[0.045,0.955,0],[0.005,0.43,0]];verticalLabelPosition=bottom;sketch=0;html=1;verticalAlign=top;aspect=fixed;align=center;pointerEvents=1;shape=mxgraph.cisco19.3g_4g_indicator;fillColor=#005073;strokeColor=none;" vertex="1" parent="1">
          <mxGeometry x="53" y="769" width="20" height="20" as="geometry" />
        </mxCell>
        <mxCell id="8mqi0Wb3uONjZXPuttcm-2266" value="" style="image;points=[];aspect=fixed;html=1;align=center;shadow=0;dashed=0;image=img/lib/allied_telesis/wireless/Laptop_Wireless.svg;" vertex="1" parent="1">
          <mxGeometry x="40" y="875" width="72.92" height="60" as="geometry" />
        </mxCell>
        <mxCell id="8mqi0Wb3uONjZXPuttcm-2270" value="" style="verticalLabelPosition=bottom;html=1;verticalAlign=top;align=center;strokeColor=none;fillColor=#00BEF2;shape=mxgraph.azure.mobile;pointerEvents=1;" vertex="1" parent="1">
          <mxGeometry x="130" y="898" width="30.5" height="52" as="geometry" />
        </mxCell>
        <mxCell id="8mqi0Wb3uONjZXPuttcm-2271" style="rounded=1;html=1;entryX=0.548;entryY=0.163;entryPerimeter=0;strokeColor=#23445D;endArrow=none;endFill=0;strokeWidth=4;entryDx=0;entryDy=0;exitX=0.581;exitY=0.538;exitDx=0;exitDy=0;exitPerimeter=0;" edge="1" parent="1" source="8mqi0Wb3uONjZXPuttcm-2258" target="8mqi0Wb3uONjZXPuttcm-2268">
          <mxGeometry relative="1" as="geometry">
            <mxPoint x="263" y="804" as="sourcePoint" />
            <mxPoint x="217" y="899" as="targetPoint" />
          </mxGeometry>
        </mxCell>
        <mxCell id="8mqi0Wb3uONjZXPuttcm-2272" style="rounded=1;html=1;strokeColor=#23445D;endArrow=none;endFill=0;strokeWidth=4;exitX=0.548;exitY=0.432;exitDx=0;exitDy=0;exitPerimeter=0;entryX=0.369;entryY=0.71;entryDx=0;entryDy=0;entryPerimeter=0;" edge="1" parent="1" source="8mqi0Wb3uONjZXPuttcm-2268" target="8mqi0Wb3uONjZXPuttcm-2267">
          <mxGeometry relative="1" as="geometry">
            <mxPoint x="175.5" y="932" as="sourcePoint" />
            <mxPoint x="129.5" y="1027" as="targetPoint" />
          </mxGeometry>
        </mxCell>
        <mxCell id="8mqi0Wb3uONjZXPuttcm-2274" style="rounded=1;html=1;entryX=0.444;entryY=0.723;entryPerimeter=0;strokeColor=#23445D;endArrow=none;endFill=0;strokeWidth=4;entryDx=0;entryDy=0;exitX=0.729;exitY=0.411;exitDx=0;exitDy=0;exitPerimeter=0;" edge="1" parent="1" source="8mqi0Wb3uONjZXPuttcm-2268" target="8mqi0Wb3uONjZXPuttcm-2269">
          <mxGeometry relative="1" as="geometry">
            <mxPoint x="306" y="960" as="sourcePoint" />
            <mxPoint x="260" y="1055" as="targetPoint" />
          </mxGeometry>
        </mxCell>
        <mxCell id="8mqi0Wb3uONjZXPuttcm-2267" value="" style="shape=mxgraph.cisco.computers_and_peripherals.workstation;html=1;dashed=0;fillColor=#10739E;strokeColor=#ffffff;strokeWidth=2;verticalLabelPosition=bottom;verticalAlign=top;fontFamily=Helvetica;fontSize=36;fontColor=#FFB366" vertex="1" parent="1">
          <mxGeometry x="160.5" y="975" width="67" height="54" as="geometry" />
        </mxCell>
        <mxCell id="8mqi0Wb3uONjZXPuttcm-2269" value="" style="shape=mxgraph.cisco.computers_and_peripherals.workstation;html=1;dashed=0;fillColor=#10739E;strokeColor=#ffffff;strokeWidth=2;verticalLabelPosition=bottom;verticalAlign=top;fontFamily=Helvetica;fontSize=36;fontColor=#FFB366" vertex="1" parent="1">
          <mxGeometry x="240" y="972" width="72.5" height="50" as="geometry" />
        </mxCell>
        <mxCell id="8mqi0Wb3uONjZXPuttcm-2268" value="" style="shape=mxgraph.cisco.switches.workgroup_switch;html=1;dashed=0;fillColor=#10739E;strokeColor=#ffffff;strokeWidth=2;verticalLabelPosition=bottom;verticalAlign=top;fontFamily=Helvetica;fontSize=36;fontColor=#FFB366" vertex="1" parent="1">
          <mxGeometry x="191" y="890" width="72" height="42" as="geometry" />
        </mxCell>
        <mxCell id="8mqi0Wb3uONjZXPuttcm-2258" value="" style="shape=mxgraph.cisco.routers.router;html=1;dashed=0;fillColor=#10739E;strokeColor=#ffffff;strokeWidth=2;verticalLabelPosition=bottom;verticalAlign=top;fontFamily=Helvetica;fontSize=36;fontColor=#FFB366" vertex="1" parent="1">
          <mxGeometry x="149.5" y="677" width="78" height="53" as="geometry" />
        </mxCell>
        <mxCell id="8mqi0Wb3uONjZXPuttcm-2275" style="rounded=1;html=1;strokeColor=#23445D;endArrow=none;endFill=0;strokeWidth=4;exitX=0.483;exitY=0.695;exitDx=0;exitDy=0;exitPerimeter=0;curved=0;dashed=1;dashPattern=1 1;" edge="1" parent="1" target="8mqi0Wb3uONjZXPuttcm-2266">
          <mxGeometry relative="1" as="geometry">
            <mxPoint x="110.42899999999986" y="803.7850000000001" as="sourcePoint" />
            <mxPoint x="255" y="1041" as="targetPoint" />
          </mxGeometry>
        </mxCell>
        <mxCell id="8mqi0Wb3uONjZXPuttcm-2276" style="rounded=1;html=1;strokeColor=#23445D;endArrow=none;endFill=0;strokeWidth=4;exitX=0.469;exitY=0.695;exitDx=0;exitDy=0;exitPerimeter=0;curved=0;dashed=1;dashPattern=1 1;" edge="1" parent="1" target="8mqi0Wb3uONjZXPuttcm-2270">
          <mxGeometry relative="1" as="geometry">
            <mxPoint x="109.5469999999998" y="803.7850000000001" as="sourcePoint" />
            <mxPoint x="120" y="913" as="targetPoint" />
          </mxGeometry>
        </mxCell>
        <mxCell id="8mqi0Wb3uONjZXPuttcm-2277" value="Gateway" style="rounded=1;whiteSpace=wrap;html=1;strokeColor=none;fillColor=none;fontSize=14;fontColor=#23445D;align=center;fontStyle=1" vertex="1" parent="1">
          <mxGeometry x="135" y="658" width="118" height="19" as="geometry" />
        </mxCell>
        <mxCell id="8mqi0Wb3uONjZXPuttcm-2278" value="End Hosts (Wired Ethernet)" style="rounded=1;whiteSpace=wrap;html=1;strokeColor=none;fillColor=none;fontSize=14;fontColor=#23445D;align=center;fontStyle=1" vertex="1" parent="1">
          <mxGeometry x="130" y="1035" width="190" height="19" as="geometry" />
        </mxCell>
        <mxCell id="8mqi0Wb3uONjZXPuttcm-2279" value="Wireless AP" style="rounded=1;whiteSpace=wrap;html=1;strokeColor=none;fillColor=none;fontSize=14;fontColor=#23445D;align=center;fontStyle=1" vertex="1" parent="1">
          <mxGeometry x="18" y="760" width="190" height="19" as="geometry" />
        </mxCell>
        <mxCell id="8mqi0Wb3uONjZXPuttcm-2280" value="End Hosts (Wireless)" style="rounded=1;whiteSpace=wrap;html=1;strokeColor=none;fillColor=none;fontSize=14;fontColor=#23445D;align=center;fontStyle=1" vertex="1" parent="1">
          <mxGeometry x="6.5" y="954" width="190" height="19" as="geometry" />
        </mxCell>
        <mxCell id="8mqi0Wb3uONjZXPuttcm-2281" value="" style="shape=mxgraph.cisco.misc.access_point;html=1;pointerEvents=1;dashed=0;fillColor=#036897;strokeColor=#ffffff;strokeWidth=2;verticalLabelPosition=bottom;verticalAlign=top;align=center;outlineConnect=0;" vertex="1" parent="1">
          <mxGeometry x="73" y="791" width="80" height="34" as="geometry" />
        </mxCell>
        <mxCell id="8mqi0Wb3uONjZXPuttcm-2285" value="Regional ISP" style="rounded=1;whiteSpace=wrap;html=1;strokeColor=none;fillColor=none;fontSize=14;fontColor=#23445D;align=center;fontStyle=1" vertex="1" parent="1">
          <mxGeometry x="277.5" y="619" width="196" height="19" as="geometry" />
        </mxCell>
        <mxCell id="8mqi0Wb3uONjZXPuttcm-2289" style="edgeStyle=none;rounded=1;html=1;strokeColor=#23445D;endArrow=none;endFill=0;strokeWidth=4;entryX=0.484;entryY=0.443;entryDx=0;entryDy=0;entryPerimeter=0;exitX=0.503;exitY=0.453;exitDx=0;exitDy=0;exitPerimeter=0;" edge="1" parent="1" source="8mqi0Wb3uONjZXPuttcm-2287" target="8mqi0Wb3uONjZXPuttcm-2284">
          <mxGeometry relative="1" as="geometry">
            <mxPoint x="445" y="630" as="sourcePoint" />
            <mxPoint x="360" y="749" as="targetPoint" />
          </mxGeometry>
        </mxCell>
        <mxCell id="8mqi0Wb3uONjZXPuttcm-2290" style="edgeStyle=none;rounded=1;html=1;strokeColor=#23445D;endArrow=none;endFill=0;strokeWidth=4;entryX=0.474;entryY=0.665;entryDx=0;entryDy=0;entryPerimeter=0;exitX=0.744;exitY=0.594;exitDx=0;exitDy=0;exitPerimeter=0;" edge="1" parent="1" source="8mqi0Wb3uONjZXPuttcm-2287" target="8mqi0Wb3uONjZXPuttcm-2288">
          <mxGeometry relative="1" as="geometry">
            <mxPoint x="485" y="680" as="sourcePoint" />
            <mxPoint x="400" y="799" as="targetPoint" />
          </mxGeometry>
        </mxCell>
        <mxCell id="8mqi0Wb3uONjZXPuttcm-2291" style="edgeStyle=none;rounded=1;html=1;strokeColor=#23445D;endArrow=none;endFill=0;strokeWidth=4;entryX=0.628;entryY=0.608;entryDx=0;entryDy=0;entryPerimeter=0;exitX=0.683;exitY=0.406;exitDx=0;exitDy=0;exitPerimeter=0;" edge="1" parent="1" source="8mqi0Wb3uONjZXPuttcm-2288" target="8mqi0Wb3uONjZXPuttcm-2284">
          <mxGeometry relative="1" as="geometry">
            <mxPoint x="535" y="710" as="sourcePoint" />
            <mxPoint x="450" y="829" as="targetPoint" />
          </mxGeometry>
        </mxCell>
        <mxCell id="8mqi0Wb3uONjZXPuttcm-2284" value="" style="shape=mxgraph.cisco.routers.router;html=1;dashed=0;fillColor=#10739E;strokeColor=#ffffff;strokeWidth=2;verticalLabelPosition=bottom;verticalAlign=top;fontFamily=Helvetica;fontSize=36;fontColor=#FFB366" vertex="1" parent="1">
          <mxGeometry x="258" y="548" width="78" height="53" as="geometry" />
        </mxCell>
        <mxCell id="8mqi0Wb3uONjZXPuttcm-2288" value="" style="shape=mxgraph.cisco.routers.router;html=1;dashed=0;fillColor=#10739E;strokeColor=#ffffff;strokeWidth=2;verticalLabelPosition=bottom;verticalAlign=top;fontFamily=Helvetica;fontSize=36;fontColor=#FFB366" vertex="1" parent="1">
          <mxGeometry x="395" y="510" width="78" height="53" as="geometry" />
        </mxCell>
        <mxCell id="8mqi0Wb3uONjZXPuttcm-2293" value="" style="rounded=1;whiteSpace=wrap;html=1;strokeColor=none;fillColor=#BAC8D3;fontSize=24;fontColor=#23445D;align=center;opacity=60;" vertex="1" parent="1">
          <mxGeometry x="1260" y="591.25" width="382" height="270.5" as="geometry" />
        </mxCell>
        <mxCell id="8mqi0Wb3uONjZXPuttcm-2294" value="" style="rounded=1;whiteSpace=wrap;html=1;strokeColor=none;fillColor=#BAC8D3;fontSize=24;fontColor=#23445D;align=center;opacity=60;" vertex="1" parent="1">
          <mxGeometry x="874" y="204" width="390" height="270.5" as="geometry" />
        </mxCell>
        <mxCell id="8mqi0Wb3uONjZXPuttcm-2302" value="" style="rounded=1;whiteSpace=wrap;html=1;strokeColor=none;fillColor=#BAC8D3;fontSize=24;fontColor=#23445D;align=center;opacity=60;" vertex="1" parent="1">
          <mxGeometry x="1021" y="548" width="220" height="190.5" as="geometry" />
        </mxCell>
        <mxCell id="8mqi0Wb3uONjZXPuttcm-2305" style="rounded=1;html=1;strokeColor=#23445D;endArrow=none;endFill=0;strokeWidth=4;exitX=0.603;exitY=0.509;exitDx=0;exitDy=0;exitPerimeter=0;" edge="1" parent="1" source="2133" target="8mqi0Wb3uONjZXPuttcm-2297">
          <mxGeometry relative="1" as="geometry">
            <mxPoint x="710" y="690" as="sourcePoint" />
            <mxPoint x="766" y="756" as="targetPoint" />
          </mxGeometry>
        </mxCell>
        <mxCell id="8mqi0Wb3uONjZXPuttcm-2306" style="rounded=1;html=1;strokeColor=#23445D;endArrow=none;endFill=0;strokeWidth=4;exitX=0.615;exitY=0.453;exitDx=0;exitDy=0;exitPerimeter=0;entryX=0.506;entryY=0.646;entryDx=0;entryDy=0;entryPerimeter=0;" edge="1" parent="1" source="8mqi0Wb3uONjZXPuttcm-2297" target="2135">
          <mxGeometry relative="1" as="geometry">
            <mxPoint x="830" y="700" as="sourcePoint" />
            <mxPoint x="886" y="766" as="targetPoint" />
          </mxGeometry>
        </mxCell>
        <mxCell id="8mqi0Wb3uONjZXPuttcm-2307" style="rounded=1;html=1;strokeColor=#23445D;endArrow=none;endFill=0;strokeWidth=4;exitX=0.647;exitY=0.547;exitDx=0;exitDy=0;exitPerimeter=0;entryX=0.314;entryY=0.651;entryDx=0;entryDy=0;entryPerimeter=0;" edge="1" parent="1" source="8mqi0Wb3uONjZXPuttcm-2297" target="8mqi0Wb3uONjZXPuttcm-2298">
          <mxGeometry relative="1" as="geometry">
            <mxPoint x="820" y="760" as="sourcePoint" />
            <mxPoint x="876" y="826" as="targetPoint" />
          </mxGeometry>
        </mxCell>
        <mxCell id="8mqi0Wb3uONjZXPuttcm-2308" style="rounded=1;html=1;strokeColor=#23445D;endArrow=none;endFill=0;strokeWidth=4;exitX=0.715;exitY=0.599;exitDx=0;exitDy=0;exitPerimeter=0;entryX=0.506;entryY=0.651;entryDx=0;entryDy=0;entryPerimeter=0;" edge="1" parent="1" source="2135" target="8mqi0Wb3uONjZXPuttcm-2298">
          <mxGeometry relative="1" as="geometry">
            <mxPoint x="830" y="770" as="sourcePoint" />
            <mxPoint x="886" y="836" as="targetPoint" />
          </mxGeometry>
        </mxCell>
        <mxCell id="8mqi0Wb3uONjZXPuttcm-2309" style="rounded=1;html=1;strokeColor=#23445D;endArrow=none;endFill=0;strokeWidth=4;entryX=0.41;entryY=0.627;entryDx=0;entryDy=0;entryPerimeter=0;" edge="1" parent="1" source="8mqi0Wb3uONjZXPuttcm-2299" target="8mqi0Wb3uONjZXPuttcm-2298">
          <mxGeometry relative="1" as="geometry">
            <mxPoint x="930" y="750" as="sourcePoint" />
            <mxPoint x="986" y="816" as="targetPoint" />
          </mxGeometry>
        </mxCell>
        <mxCell id="2135" value="" style="shape=mxgraph.cisco.routers.router;html=1;dashed=0;fillColor=#10739E;strokeColor=#ffffff;strokeWidth=2;verticalLabelPosition=bottom;verticalAlign=top;fontFamily=Helvetica;fontSize=36;fontColor=#FFB366" parent="1" vertex="1">
          <mxGeometry x="720" y="716" width="78" height="53" as="geometry" />
        </mxCell>
        <mxCell id="8mqi0Wb3uONjZXPuttcm-2298" value="" style="shape=mxgraph.cisco.routers.router;html=1;dashed=0;fillColor=#10739E;strokeColor=#ffffff;strokeWidth=2;verticalLabelPosition=bottom;verticalAlign=top;fontFamily=Helvetica;fontSize=36;fontColor=#FFB366" vertex="1" parent="1">
          <mxGeometry x="900" y="707" width="78" height="53" as="geometry" />
        </mxCell>
        <mxCell id="8mqi0Wb3uONjZXPuttcm-2312" style="rounded=1;html=1;strokeColor=#23445D;endArrow=none;endFill=0;strokeWidth=4;entryX=0.41;entryY=0.274;entryDx=0;entryDy=0;entryPerimeter=0;exitX=0.455;exitY=0.453;exitDx=0;exitDy=0;exitPerimeter=0;" edge="1" parent="1" source="8mqi0Wb3uONjZXPuttcm-2297" target="8mqi0Wb3uONjZXPuttcm-2299">
          <mxGeometry relative="1" as="geometry">
            <mxPoint x="900" y="670" as="sourcePoint" />
            <mxPoint x="945" y="825" as="targetPoint" />
          </mxGeometry>
        </mxCell>
        <mxCell id="8mqi0Wb3uONjZXPuttcm-2297" value="" style="shape=mxgraph.cisco.routers.router;html=1;dashed=0;fillColor=#10739E;strokeColor=#ffffff;strokeWidth=2;verticalLabelPosition=bottom;verticalAlign=top;fontFamily=Helvetica;fontSize=36;fontColor=#FFB366" vertex="1" parent="1">
          <mxGeometry x="749" y="610" width="78" height="53" as="geometry" />
        </mxCell>
        <mxCell id="8mqi0Wb3uONjZXPuttcm-2324" value="Tier-1 ISP A" style="rounded=1;whiteSpace=wrap;html=1;strokeColor=none;fillColor=none;fontSize=14;fontColor=#23445D;align=center;fontStyle=1" vertex="1" parent="1">
          <mxGeometry x="690" y="798.5" width="196" height="19" as="geometry" />
        </mxCell>
        <mxCell id="8mqi0Wb3uONjZXPuttcm-2326" value="Tier-1 ISP B" style="rounded=1;whiteSpace=wrap;html=1;strokeColor=none;fillColor=none;fontSize=14;fontColor=#23445D;align=center;fontStyle=1" vertex="1" parent="1">
          <mxGeometry x="981" y="481" width="196" height="19" as="geometry" />
        </mxCell>
        <mxCell id="8mqi0Wb3uONjZXPuttcm-2327" value="Tier-1 ISP C" style="rounded=1;whiteSpace=wrap;html=1;strokeColor=none;fillColor=none;fontSize=14;fontColor=#23445D;align=center;fontStyle=1" vertex="1" parent="1">
          <mxGeometry x="1349" y="871" width="196" height="19" as="geometry" />
        </mxCell>
        <mxCell id="8mqi0Wb3uONjZXPuttcm-2328" style="rounded=1;html=1;strokeColor=#23445D;endArrow=none;endFill=0;strokeWidth=4;entryX=0.52;entryY=0.584;entryDx=0;entryDy=0;entryPerimeter=0;exitX=0.554;exitY=0.556;exitDx=0;exitDy=0;exitPerimeter=0;" edge="1" parent="1" source="8mqi0Wb3uONjZXPuttcm-2299" target="8mqi0Wb3uONjZXPuttcm-2313">
          <mxGeometry relative="1" as="geometry">
            <mxPoint x="930" y="630" as="sourcePoint" />
            <mxPoint x="975" y="785" as="targetPoint" />
          </mxGeometry>
        </mxCell>
        <mxCell id="8mqi0Wb3uONjZXPuttcm-2329" style="rounded=1;html=1;strokeColor=#23445D;endArrow=none;endFill=0;strokeWidth=4;entryX=0.491;entryY=0.449;entryDx=0;entryDy=0;entryPerimeter=0;exitX=0.453;exitY=0.524;exitDx=0;exitDy=0;exitPerimeter=0;" edge="1" parent="1" source="8mqi0Wb3uONjZXPuttcm-2313" target="8mqi0Wb3uONjZXPuttcm-2315">
          <mxGeometry relative="1" as="geometry">
            <mxPoint x="1054" y="414.5" as="sourcePoint" />
            <mxPoint x="1099" y="569.5" as="targetPoint" />
          </mxGeometry>
        </mxCell>
        <mxCell id="8mqi0Wb3uONjZXPuttcm-2330" style="rounded=1;html=1;strokeColor=#23445D;endArrow=none;endFill=0;strokeWidth=4;entryX=0.412;entryY=0.504;entryDx=0;entryDy=0;entryPerimeter=0;exitX=0.474;exitY=0.614;exitDx=0;exitDy=0;exitPerimeter=0;" edge="1" parent="1" source="8mqi0Wb3uONjZXPuttcm-2314" target="8mqi0Wb3uONjZXPuttcm-2313">
          <mxGeometry relative="1" as="geometry">
            <mxPoint x="1104" y="354.5" as="sourcePoint" />
            <mxPoint x="1149" y="509.5" as="targetPoint" />
          </mxGeometry>
        </mxCell>
        <mxCell id="8mqi0Wb3uONjZXPuttcm-2331" style="rounded=1;html=1;strokeColor=#23445D;endArrow=none;endFill=0;strokeWidth=4;entryX=0.503;entryY=0.415;entryDx=0;entryDy=0;entryPerimeter=0;exitX=0.545;exitY=0.508;exitDx=0;exitDy=0;exitPerimeter=0;" edge="1" parent="1" source="8mqi0Wb3uONjZXPuttcm-2315" target="8mqi0Wb3uONjZXPuttcm-2317">
          <mxGeometry relative="1" as="geometry">
            <mxPoint x="1094" y="444.5" as="sourcePoint" />
            <mxPoint x="1139" y="599.5" as="targetPoint" />
          </mxGeometry>
        </mxCell>
        <mxCell id="8mqi0Wb3uONjZXPuttcm-2333" style="rounded=1;html=1;strokeColor=#23445D;endArrow=none;endFill=0;strokeWidth=4;entryX=0.489;entryY=0.634;entryDx=0;entryDy=0;entryPerimeter=0;exitX=0.628;exitY=0.604;exitDx=0;exitDy=0;exitPerimeter=0;" edge="1" parent="1" source="8mqi0Wb3uONjZXPuttcm-2313" target="8mqi0Wb3uONjZXPuttcm-2317">
          <mxGeometry relative="1" as="geometry">
            <mxPoint x="1174" y="374.5" as="sourcePoint" />
            <mxPoint x="1219" y="529.5" as="targetPoint" />
          </mxGeometry>
        </mxCell>
        <mxCell id="8mqi0Wb3uONjZXPuttcm-2334" style="rounded=1;html=1;strokeColor=#23445D;endArrow=none;endFill=0;strokeWidth=4;entryX=0.593;entryY=0.613;entryDx=0;entryDy=0;entryPerimeter=0;exitX=0.584;exitY=0.554;exitDx=0;exitDy=0;exitPerimeter=0;" edge="1" parent="1" source="8mqi0Wb3uONjZXPuttcm-2317" target="8mqi0Wb3uONjZXPuttcm-2316">
          <mxGeometry relative="1" as="geometry">
            <mxPoint x="1194" y="364.5" as="sourcePoint" />
            <mxPoint x="1239" y="519.5" as="targetPoint" />
          </mxGeometry>
        </mxCell>
        <mxCell id="8mqi0Wb3uONjZXPuttcm-2335" style="rounded=1;html=1;strokeColor=#23445D;endArrow=none;endFill=0;strokeWidth=4;entryX=0.445;entryY=0.374;entryDx=0;entryDy=0;entryPerimeter=0;" edge="1" parent="1" target="8mqi0Wb3uONjZXPuttcm-2316">
          <mxGeometry relative="1" as="geometry">
            <mxPoint x="1004" y="244.5" as="sourcePoint" />
            <mxPoint x="1049" y="399.5" as="targetPoint" />
          </mxGeometry>
        </mxCell>
        <mxCell id="8mqi0Wb3uONjZXPuttcm-2336" style="rounded=1;html=1;strokeColor=#23445D;endArrow=none;endFill=0;strokeWidth=4;entryX=0.437;entryY=0.468;entryDx=0;entryDy=0;entryPerimeter=0;exitX=0.582;exitY=0.594;exitDx=0;exitDy=0;exitPerimeter=0;" edge="1" parent="1" source="8mqi0Wb3uONjZXPuttcm-2314" target="8mqi0Wb3uONjZXPuttcm-2315">
          <mxGeometry relative="1" as="geometry">
            <mxPoint x="1114" y="404.5" as="sourcePoint" />
            <mxPoint x="1159" y="559.5" as="targetPoint" />
          </mxGeometry>
        </mxCell>
        <mxCell id="8mqi0Wb3uONjZXPuttcm-2337" style="rounded=1;html=1;strokeColor=#23445D;endArrow=none;endFill=0;strokeWidth=4;entryX=0.553;entryY=0.533;entryDx=0;entryDy=0;entryPerimeter=0;exitX=0.572;exitY=0.23;exitDx=0;exitDy=0;exitPerimeter=0;" edge="1" parent="1" source="8mqi0Wb3uONjZXPuttcm-2315" target="8mqi0Wb3uONjZXPuttcm-2316">
          <mxGeometry relative="1" as="geometry">
            <mxPoint x="1104" y="294.5" as="sourcePoint" />
            <mxPoint x="1149" y="449.5" as="targetPoint" />
          </mxGeometry>
        </mxCell>
        <mxCell id="8mqi0Wb3uONjZXPuttcm-2316" value="" style="shape=mxgraph.cisco.routers.router;html=1;dashed=0;fillColor=#10739E;strokeColor=#ffffff;strokeWidth=2;verticalLabelPosition=bottom;verticalAlign=top;fontFamily=Helvetica;fontSize=36;fontColor=#FFB366" vertex="1" parent="1">
          <mxGeometry x="1112" y="213.5" width="78" height="53" as="geometry" />
        </mxCell>
        <mxCell id="8mqi0Wb3uONjZXPuttcm-2315" value="" style="shape=mxgraph.cisco.routers.router;html=1;dashed=0;fillColor=#10739E;strokeColor=#ffffff;strokeWidth=2;verticalLabelPosition=bottom;verticalAlign=top;fontFamily=Helvetica;fontSize=36;fontColor=#FFB366" vertex="1" parent="1">
          <mxGeometry x="1040" y="303.25" width="78" height="53" as="geometry" />
        </mxCell>
        <mxCell id="8mqi0Wb3uONjZXPuttcm-2314" value="" style="shape=mxgraph.cisco.routers.router;html=1;dashed=0;fillColor=#10739E;strokeColor=#ffffff;strokeWidth=2;verticalLabelPosition=bottom;verticalAlign=top;fontFamily=Helvetica;fontSize=36;fontColor=#FFB366" vertex="1" parent="1">
          <mxGeometry x="955" y="234.5" width="78" height="53" as="geometry" />
        </mxCell>
        <mxCell id="8mqi0Wb3uONjZXPuttcm-2313" value="" style="shape=mxgraph.cisco.routers.router;html=1;dashed=0;fillColor=#10739E;strokeColor=#ffffff;strokeWidth=2;verticalLabelPosition=bottom;verticalAlign=top;fontFamily=Helvetica;fontSize=36;fontColor=#FFB366" vertex="1" parent="1">
          <mxGeometry x="924" y="384.5" width="78" height="53" as="geometry" />
        </mxCell>
        <mxCell id="8mqi0Wb3uONjZXPuttcm-2299" value="" style="shape=mxgraph.cisco.routers.router;html=1;dashed=0;fillColor=#10739E;strokeColor=#ffffff;strokeWidth=2;verticalLabelPosition=bottom;verticalAlign=top;fontFamily=Helvetica;fontSize=36;fontColor=#FFB366" vertex="1" parent="1">
          <mxGeometry x="840" y="532" width="78" height="53" as="geometry" />
        </mxCell>
        <mxCell id="8mqi0Wb3uONjZXPuttcm-2345" style="edgeStyle=none;rounded=1;html=1;strokeColor=#23445D;endArrow=none;endFill=0;strokeWidth=4;entryX=0.49;entryY=0.432;entryDx=0;entryDy=0;entryPerimeter=0;exitX=0.561;exitY=0.239;exitDx=0;exitDy=0;exitPerimeter=0;" edge="1" parent="1" source="2107" target="8mqi0Wb3uONjZXPuttcm-2339">
          <mxGeometry relative="1" as="geometry">
            <mxPoint x="601" y="410" as="sourcePoint" />
            <mxPoint x="460" y="458" as="targetPoint" />
          </mxGeometry>
        </mxCell>
        <mxCell id="8mqi0Wb3uONjZXPuttcm-2346" style="edgeStyle=none;rounded=1;html=1;strokeColor=#23445D;endArrow=none;endFill=0;strokeWidth=4;entryX=0.532;entryY=0.33;entryDx=0;entryDy=0;entryPerimeter=0;exitX=0.434;exitY=0.567;exitDx=0;exitDy=0;exitPerimeter=0;" edge="1" parent="1" source="2096" target="8mqi0Wb3uONjZXPuttcm-2339">
          <mxGeometry relative="1" as="geometry">
            <mxPoint x="651" y="170" as="sourcePoint" />
            <mxPoint x="510" y="218" as="targetPoint" />
          </mxGeometry>
        </mxCell>
        <mxCell id="8mqi0Wb3uONjZXPuttcm-2347" style="edgeStyle=none;rounded=1;html=1;strokeColor=#23445D;endArrow=none;endFill=0;strokeWidth=4;entryX=0.386;entryY=0.444;entryDx=0;entryDy=0;entryPerimeter=0;exitX=0.53;exitY=0.698;exitDx=0;exitDy=0;exitPerimeter=0;" edge="1" parent="1" source="8mqi0Wb3uONjZXPuttcm-2340" target="8mqi0Wb3uONjZXPuttcm-2339">
          <mxGeometry relative="1" as="geometry">
            <mxPoint x="671" y="240" as="sourcePoint" />
            <mxPoint x="530" y="288" as="targetPoint" />
          </mxGeometry>
        </mxCell>
        <mxCell id="8mqi0Wb3uONjZXPuttcm-2348" style="edgeStyle=none;rounded=1;html=1;strokeColor=#23445D;endArrow=none;endFill=0;strokeWidth=4;entryX=0.443;entryY=0.444;entryDx=0;entryDy=0;entryPerimeter=0;exitX=0.399;exitY=0.613;exitDx=0;exitDy=0;exitPerimeter=0;" edge="1" parent="1" source="8mqi0Wb3uONjZXPuttcm-2341" target="8mqi0Wb3uONjZXPuttcm-2339">
          <mxGeometry relative="1" as="geometry">
            <mxPoint x="641" y="340" as="sourcePoint" />
            <mxPoint x="500" y="388" as="targetPoint" />
          </mxGeometry>
        </mxCell>
        <mxCell id="8mqi0Wb3uONjZXPuttcm-2349" style="edgeStyle=none;rounded=1;html=1;strokeColor=#23445D;endArrow=none;endFill=0;strokeWidth=4;entryX=0.466;entryY=0.434;entryDx=0;entryDy=0;entryPerimeter=0;exitX=0.452;exitY=0.541;exitDx=0;exitDy=0;exitPerimeter=0;" edge="1" parent="1" source="8mqi0Wb3uONjZXPuttcm-2338" target="2107">
          <mxGeometry relative="1" as="geometry">
            <mxPoint x="511" y="320" as="sourcePoint" />
            <mxPoint x="370" y="368" as="targetPoint" />
          </mxGeometry>
        </mxCell>
        <mxCell id="8mqi0Wb3uONjZXPuttcm-2350" style="edgeStyle=none;rounded=1;html=1;strokeColor=#23445D;endArrow=none;endFill=0;strokeWidth=4;entryX=0.504;entryY=0.563;entryDx=0;entryDy=0;entryPerimeter=0;exitX=0.509;exitY=0.377;exitDx=0;exitDy=0;exitPerimeter=0;" edge="1" parent="1" source="8mqi0Wb3uONjZXPuttcm-2287" target="8mqi0Wb3uONjZXPuttcm-2338">
          <mxGeometry relative="1" as="geometry">
            <mxPoint x="491" y="370" as="sourcePoint" />
            <mxPoint x="350" y="418" as="targetPoint" />
          </mxGeometry>
        </mxCell>
        <mxCell id="2097" value="" style="shape=mxgraph.cisco.servers.fileserver;html=1;dashed=0;fillColor=#10739E;strokeColor=#ffffff;strokeWidth=2;verticalLabelPosition=bottom;verticalAlign=top;fontFamily=Helvetica;fontSize=36;fontColor=#FFB366" parent="1" vertex="1">
          <mxGeometry x="212.5" y="82" width="43" height="62" as="geometry" />
        </mxCell>
        <mxCell id="2100" value="" style="shape=mxgraph.cisco.servers.storage_server;html=1;dashed=0;fillColor=#10739E;strokeColor=#ffffff;strokeWidth=2;verticalLabelPosition=bottom;verticalAlign=top;fontFamily=Helvetica;fontSize=36;fontColor=#FFB366" parent="1" vertex="1">
          <mxGeometry x="276" y="70.5" width="54" height="83" as="geometry" />
        </mxCell>
        <mxCell id="2099" value="" style="shape=mxgraph.cisco.servers.file_server;html=1;dashed=0;fillColor=#10739E;strokeColor=#ffffff;strokeWidth=2;verticalLabelPosition=bottom;verticalAlign=top;fontFamily=Helvetica;fontSize=36;fontColor=#FFB366" parent="1" vertex="1">
          <mxGeometry x="352" y="98" width="43" height="58" as="geometry" />
        </mxCell>
        <mxCell id="2096" value="" style="shape=mxgraph.cisco.computers_and_peripherals.workstation;html=1;dashed=0;fillColor=#10739E;strokeColor=#ffffff;strokeWidth=2;verticalLabelPosition=bottom;verticalAlign=top;fontFamily=Helvetica;fontSize=36;fontColor=#FFB366" parent="1" vertex="1">
          <mxGeometry x="537" y="94" width="83" height="62" as="geometry" />
        </mxCell>
        <mxCell id="8mqi0Wb3uONjZXPuttcm-2340" value="" style="shape=mxgraph.cisco.computers_and_peripherals.workstation;html=1;dashed=0;fillColor=#10739E;strokeColor=#ffffff;strokeWidth=2;verticalLabelPosition=bottom;verticalAlign=top;fontFamily=Helvetica;fontSize=36;fontColor=#FFB366" vertex="1" parent="1">
          <mxGeometry x="537" y="187" width="83" height="62" as="geometry" />
        </mxCell>
        <mxCell id="8mqi0Wb3uONjZXPuttcm-2341" value="" style="shape=mxgraph.cisco.computers_and_peripherals.workstation;html=1;dashed=0;fillColor=#10739E;strokeColor=#ffffff;strokeWidth=2;verticalLabelPosition=bottom;verticalAlign=top;fontFamily=Helvetica;fontSize=36;fontColor=#FFB366" vertex="1" parent="1">
          <mxGeometry x="537" y="290" width="83" height="62" as="geometry" />
        </mxCell>
        <mxCell id="8mqi0Wb3uONjZXPuttcm-2339" value="" style="shape=mxgraph.cisco.switches.workgroup_switch;html=1;dashed=0;fillColor=#10739E;strokeColor=#ffffff;strokeWidth=2;verticalLabelPosition=bottom;verticalAlign=top;fontFamily=Helvetica;fontSize=36;fontColor=#FFB366" vertex="1" parent="1">
          <mxGeometry x="420" y="204" width="90" height="45" as="geometry" />
        </mxCell>
        <mxCell id="8mqi0Wb3uONjZXPuttcm-2338" value="" style="shape=mxgraph.cisco.routers.router;html=1;dashed=0;fillColor=#10739E;strokeColor=#ffffff;strokeWidth=2;verticalLabelPosition=bottom;verticalAlign=top;fontFamily=Helvetica;fontSize=36;fontColor=#FFB366" vertex="1" parent="1">
          <mxGeometry x="320" y="338.75" width="78" height="53" as="geometry" />
        </mxCell>
        <mxCell id="8mqi0Wb3uONjZXPuttcm-2287" value="" style="shape=mxgraph.cisco.routers.router;html=1;dashed=0;fillColor=#10739E;strokeColor=#ffffff;strokeWidth=2;verticalLabelPosition=bottom;verticalAlign=top;fontFamily=Helvetica;fontSize=36;fontColor=#FFB366" vertex="1" parent="1">
          <mxGeometry x="299" y="460" width="78" height="53" as="geometry" />
        </mxCell>
        <mxCell id="8mqi0Wb3uONjZXPuttcm-2351" value="" style="shape=umlActor;verticalLabelPosition=bottom;verticalAlign=top;html=1;outlineConnect=0;" vertex="1" parent="1">
          <mxGeometry x="43" y="260" width="30" height="60" as="geometry" />
        </mxCell>
        <mxCell id="8mqi0Wb3uONjZXPuttcm-2355" style="edgeStyle=none;rounded=1;html=1;strokeColor=#23445D;endArrow=none;endFill=0;strokeWidth=4;exitX=0.39;exitY=0.529;exitDx=0;exitDy=0;exitPerimeter=0;" edge="1" parent="1" source="2107" target="8mqi0Wb3uONjZXPuttcm-2352">
          <mxGeometry relative="1" as="geometry">
            <mxPoint x="306" y="505" as="sourcePoint" />
            <mxPoint x="290" y="400" as="targetPoint" />
          </mxGeometry>
        </mxCell>
        <mxCell id="8mqi0Wb3uONjZXPuttcm-2356" value="" style="points=[[0.005,0.09,0],[0.08,0,0],[0.76,0.25,0],[1,0.92,0],[0.91,0.995,0],[0.57,0.995,0],[0.045,0.955,0],[0.005,0.43,0]];verticalLabelPosition=bottom;sketch=0;html=1;verticalAlign=top;aspect=fixed;align=center;pointerEvents=1;shape=mxgraph.cisco19.3g_4g_indicator;fillColor=#005073;strokeColor=none;" vertex="1" parent="1">
          <mxGeometry x="160.5" y="338.75" width="20" height="20" as="geometry" />
        </mxCell>
        <mxCell id="8mqi0Wb3uONjZXPuttcm-2358" value="" style="shape=umlActor;verticalLabelPosition=bottom;verticalAlign=top;html=1;outlineConnect=0;" vertex="1" parent="1">
          <mxGeometry x="48" y="144" width="30" height="60" as="geometry" />
        </mxCell>
        <mxCell id="8mqi0Wb3uONjZXPuttcm-2363" value="" style="shape=umlActor;verticalLabelPosition=bottom;verticalAlign=top;html=1;outlineConnect=0;" vertex="1" parent="1">
          <mxGeometry x="139.42" y="200" width="30" height="60" as="geometry" />
        </mxCell>
        <mxCell id="8mqi0Wb3uONjZXPuttcm-2368" style="rounded=1;html=1;strokeColor=#23445D;endArrow=none;endFill=0;strokeWidth=4;exitX=0.97;exitY=0.98;exitDx=0;exitDy=0;exitPerimeter=0;curved=0;dashed=1;dashPattern=1 1;" edge="1" parent="1" source="8mqi0Wb3uONjZXPuttcm-2357" target="8mqi0Wb3uONjZXPuttcm-2352">
          <mxGeometry relative="1" as="geometry">
            <mxPoint x="163.42899999999986" y="310" as="sourcePoint" />
            <mxPoint x="140" y="381.2149999999999" as="targetPoint" />
          </mxGeometry>
        </mxCell>
        <mxCell id="8mqi0Wb3uONjZXPuttcm-2369" style="rounded=1;html=1;strokeColor=#23445D;endArrow=none;endFill=0;strokeWidth=4;exitX=0.97;exitY=0.98;exitDx=0;exitDy=0;exitPerimeter=0;curved=0;dashed=1;dashPattern=1 1;" edge="1" parent="1" source="8mqi0Wb3uONjZXPuttcm-2361" target="8mqi0Wb3uONjZXPuttcm-2352">
          <mxGeometry relative="1" as="geometry">
            <mxPoint x="233.42899999999986" y="320" as="sourcePoint" />
            <mxPoint x="210" y="391.2149999999999" as="targetPoint" />
          </mxGeometry>
        </mxCell>
        <mxCell id="8mqi0Wb3uONjZXPuttcm-2370" style="rounded=1;html=1;strokeColor=#23445D;endArrow=none;endFill=0;strokeWidth=4;exitX=0.97;exitY=0.98;exitDx=0;exitDy=0;exitPerimeter=0;curved=0;dashed=1;dashPattern=1 1;" edge="1" parent="1" source="8mqi0Wb3uONjZXPuttcm-2359" target="8mqi0Wb3uONjZXPuttcm-2352">
          <mxGeometry relative="1" as="geometry">
            <mxPoint x="113.42899999999986" y="220" as="sourcePoint" />
            <mxPoint x="90" y="291.2149999999999" as="targetPoint" />
          </mxGeometry>
        </mxCell>
        <mxCell id="2107" value="" style="shape=mxgraph.cisco.switches.workgroup_switch;html=1;dashed=0;fillColor=#10739E;strokeColor=#ffffff;strokeWidth=2;verticalLabelPosition=bottom;verticalAlign=top;fontFamily=Helvetica;fontSize=36;fontColor=#FFB366" parent="1" vertex="1">
          <mxGeometry x="294" y="240" width="96" height="50" as="geometry" />
        </mxCell>
        <mxCell id="8mqi0Wb3uONjZXPuttcm-2352" value="" style="shape=mxgraph.cisco.misc.access_point;html=1;pointerEvents=1;dashed=0;fillColor=#036897;strokeColor=#ffffff;strokeWidth=2;verticalLabelPosition=bottom;verticalAlign=top;align=center;outlineConnect=0;" vertex="1" parent="1">
          <mxGeometry x="183" y="348.25" width="80" height="34" as="geometry" />
        </mxCell>
        <mxCell id="8mqi0Wb3uONjZXPuttcm-2353" value="Wireless AP" style="rounded=1;whiteSpace=wrap;html=1;strokeColor=none;fillColor=none;fontSize=14;fontColor=#23445D;align=center;fontStyle=1" vertex="1" parent="1">
          <mxGeometry x="122.5" y="381" width="190" height="19" as="geometry" />
        </mxCell>
        <mxCell id="8mqi0Wb3uONjZXPuttcm-2361" value="" style="verticalLabelPosition=bottom;html=1;verticalAlign=top;align=center;strokeColor=none;fillColor=#00BEF2;shape=mxgraph.azure.mobile;pointerEvents=1;" vertex="1" parent="1">
          <mxGeometry x="169.42" y="187" width="27.08" height="44" as="geometry" />
        </mxCell>
        <mxCell id="8mqi0Wb3uONjZXPuttcm-2357" value="" style="verticalLabelPosition=bottom;html=1;verticalAlign=top;align=center;strokeColor=none;fillColor=#00BEF2;shape=mxgraph.azure.mobile;pointerEvents=1;" vertex="1" parent="1">
          <mxGeometry x="78" y="249" width="27.08" height="44" as="geometry" />
        </mxCell>
        <mxCell id="8mqi0Wb3uONjZXPuttcm-2359" value="" style="verticalLabelPosition=bottom;html=1;verticalAlign=top;align=center;strokeColor=none;fillColor=#00BEF2;shape=mxgraph.azure.mobile;pointerEvents=1;" vertex="1" parent="1">
          <mxGeometry x="85.84" y="132.5" width="27.08" height="44" as="geometry" />
        </mxCell>
        <mxCell id="8mqi0Wb3uONjZXPuttcm-2371" value="Gateway" style="rounded=1;whiteSpace=wrap;html=1;strokeColor=none;fillColor=none;fontSize=14;fontColor=#23445D;align=center;fontStyle=1" vertex="1" parent="1">
          <mxGeometry x="342" y="320" width="118" height="19" as="geometry" />
        </mxCell>
        <mxCell id="8mqi0Wb3uONjZXPuttcm-2372" value="End Hosts (Wireless)" style="rounded=1;whiteSpace=wrap;html=1;strokeColor=none;fillColor=none;fontSize=14;fontColor=#23445D;align=center;fontStyle=1" vertex="1" parent="1">
          <mxGeometry x="18" y="113.5" width="190" height="19" as="geometry" />
        </mxCell>
        <mxCell id="8mqi0Wb3uONjZXPuttcm-2373" value="Company Servers" style="rounded=1;whiteSpace=wrap;html=1;strokeColor=none;fillColor=none;fontSize=14;fontColor=#23445D;align=center;fontStyle=1" vertex="1" parent="1">
          <mxGeometry x="212.5" y="40" width="190" height="19" as="geometry" />
        </mxCell>
        <mxCell id="8mqi0Wb3uONjZXPuttcm-2375" value="End Hosts (Wired Ethernet)" style="rounded=1;whiteSpace=wrap;html=1;strokeColor=none;fillColor=none;fontSize=14;fontColor=#23445D;align=center;fontStyle=1" vertex="1" parent="1">
          <mxGeometry x="360" y="1040" width="190" height="19" as="geometry" />
        </mxCell>
        <mxCell id="8mqi0Wb3uONjZXPuttcm-2376" style="rounded=1;html=1;strokeColor=#23445D;endArrow=none;endFill=0;strokeWidth=4;entryX=0.628;entryY=0.485;entryDx=0;entryDy=0;entryPerimeter=0;exitX=0.57;exitY=0.633;exitDx=0;exitDy=0;exitPerimeter=0;" edge="1" parent="1" source="8mqi0Wb3uONjZXPuttcm-2318" target="8mqi0Wb3uONjZXPuttcm-2317">
          <mxGeometry relative="1" as="geometry">
            <mxPoint x="1306" y="648" as="sourcePoint" />
            <mxPoint x="1300" y="470" as="targetPoint" />
          </mxGeometry>
        </mxCell>
        <mxCell id="8mqi0Wb3uONjZXPuttcm-2378" style="rounded=1;html=1;strokeColor=#23445D;endArrow=none;endFill=0;strokeWidth=4;entryX=0.679;entryY=0.575;entryDx=0;entryDy=0;entryPerimeter=0;exitX=0.533;exitY=0.647;exitDx=0;exitDy=0;exitPerimeter=0;" edge="1" parent="1" source="8mqi0Wb3uONjZXPuttcm-2320" target="8mqi0Wb3uONjZXPuttcm-2319">
          <mxGeometry relative="1" as="geometry">
            <mxPoint x="1456" y="938" as="sourcePoint" />
            <mxPoint x="1450" y="760" as="targetPoint" />
          </mxGeometry>
        </mxCell>
        <mxCell id="8mqi0Wb3uONjZXPuttcm-2379" style="rounded=1;html=1;strokeColor=#23445D;endArrow=none;endFill=0;strokeWidth=4;entryX=0.57;entryY=0.602;entryDx=0;entryDy=0;entryPerimeter=0;exitX=0.559;exitY=0.504;exitDx=0;exitDy=0;exitPerimeter=0;" edge="1" parent="1" source="8mqi0Wb3uONjZXPuttcm-2321" target="8mqi0Wb3uONjZXPuttcm-2319">
          <mxGeometry relative="1" as="geometry">
            <mxPoint x="1396" y="1018" as="sourcePoint" />
            <mxPoint x="1390" y="840" as="targetPoint" />
          </mxGeometry>
        </mxCell>
        <mxCell id="8mqi0Wb3uONjZXPuttcm-2380" style="rounded=1;html=1;strokeColor=#23445D;endArrow=none;endFill=0;strokeWidth=4;entryX=0.606;entryY=0.561;entryDx=0;entryDy=0;entryPerimeter=0;exitX=0.614;exitY=0.369;exitDx=0;exitDy=0;exitPerimeter=0;" edge="1" parent="1" source="8mqi0Wb3uONjZXPuttcm-2321" target="8mqi0Wb3uONjZXPuttcm-2323">
          <mxGeometry relative="1" as="geometry">
            <mxPoint x="1476" y="988" as="sourcePoint" />
            <mxPoint x="1470" y="810" as="targetPoint" />
          </mxGeometry>
        </mxCell>
        <mxCell id="8mqi0Wb3uONjZXPuttcm-2381" style="rounded=1;html=1;strokeColor=#23445D;endArrow=none;endFill=0;strokeWidth=4;entryX=0.753;entryY=0.62;entryDx=0;entryDy=0;entryPerimeter=0;exitX=0.533;exitY=0.612;exitDx=0;exitDy=0;exitPerimeter=0;" edge="1" parent="1" source="8mqi0Wb3uONjZXPuttcm-2322" target="8mqi0Wb3uONjZXPuttcm-2320">
          <mxGeometry relative="1" as="geometry">
            <mxPoint x="1486" y="958" as="sourcePoint" />
            <mxPoint x="1480" y="780" as="targetPoint" />
          </mxGeometry>
        </mxCell>
        <mxCell id="8mqi0Wb3uONjZXPuttcm-2382" style="rounded=1;html=1;strokeColor=#23445D;endArrow=none;endFill=0;strokeWidth=4;entryX=0.679;entryY=0.558;entryDx=0;entryDy=0;entryPerimeter=0;exitX=0.551;exitY=0.345;exitDx=0;exitDy=0;exitPerimeter=0;" edge="1" parent="1" source="8mqi0Wb3uONjZXPuttcm-2323" target="8mqi0Wb3uONjZXPuttcm-2322">
          <mxGeometry relative="1" as="geometry">
            <mxPoint x="1576" y="898" as="sourcePoint" />
            <mxPoint x="1570" y="720" as="targetPoint" />
          </mxGeometry>
        </mxCell>
        <mxCell id="8mqi0Wb3uONjZXPuttcm-2383" style="rounded=1;html=1;strokeColor=#23445D;endArrow=none;endFill=0;strokeWidth=4;entryX=0.606;entryY=0.494;entryDx=0;entryDy=0;entryPerimeter=0;exitX=0.514;exitY=0.602;exitDx=0;exitDy=0;exitPerimeter=0;" edge="1" parent="1" source="8mqi0Wb3uONjZXPuttcm-2304" target="8mqi0Wb3uONjZXPuttcm-2319">
          <mxGeometry relative="1" as="geometry">
            <mxPoint x="1316" y="1038" as="sourcePoint" />
            <mxPoint x="1310" y="860" as="targetPoint" />
          </mxGeometry>
        </mxCell>
        <mxCell id="8mqi0Wb3uONjZXPuttcm-2384" style="rounded=1;html=1;strokeColor=#23445D;endArrow=none;endFill=0;strokeWidth=4;entryX=0.625;entryY=0.569;entryDx=0;entryDy=0;entryPerimeter=0;exitX=0.39;exitY=0.611;exitDx=0;exitDy=0;exitPerimeter=0;" edge="1" parent="1" source="8mqi0Wb3uONjZXPuttcm-2303" target="8mqi0Wb3uONjZXPuttcm-2298">
          <mxGeometry relative="1" as="geometry">
            <mxPoint x="836" y="1138" as="sourcePoint" />
            <mxPoint x="830" y="960" as="targetPoint" />
          </mxGeometry>
        </mxCell>
        <mxCell id="8mqi0Wb3uONjZXPuttcm-2377" style="rounded=1;html=1;strokeColor=#23445D;endArrow=none;endFill=0;strokeWidth=4;entryX=0.313;entryY=0.526;entryDx=0;entryDy=0;entryPerimeter=0;exitX=0.643;exitY=0.539;exitDx=0;exitDy=0;exitPerimeter=0;" edge="1" parent="1" source="8mqi0Wb3uONjZXPuttcm-2320" target="8mqi0Wb3uONjZXPuttcm-2318">
          <mxGeometry relative="1" as="geometry">
            <mxPoint x="1476" y="858" as="sourcePoint" />
            <mxPoint x="1470" y="680" as="targetPoint" />
          </mxGeometry>
        </mxCell>
        <mxCell id="8mqi0Wb3uONjZXPuttcm-2320" value="" style="shape=mxgraph.cisco.routers.router;html=1;dashed=0;fillColor=#10739E;strokeColor=#ffffff;strokeWidth=2;verticalLabelPosition=bottom;verticalAlign=top;fontFamily=Helvetica;fontSize=36;fontColor=#FFB366" vertex="1" parent="1">
          <mxGeometry x="1420" y="690" width="78" height="53" as="geometry" />
        </mxCell>
        <mxCell id="8mqi0Wb3uONjZXPuttcm-2322" value="" style="shape=mxgraph.cisco.routers.router;html=1;dashed=0;fillColor=#10739E;strokeColor=#ffffff;strokeWidth=2;verticalLabelPosition=bottom;verticalAlign=top;fontFamily=Helvetica;fontSize=36;fontColor=#FFB366" vertex="1" parent="1">
          <mxGeometry x="1510" y="619" width="78" height="53" as="geometry" />
        </mxCell>
        <mxCell id="8mqi0Wb3uONjZXPuttcm-2323" value="" style="shape=mxgraph.cisco.routers.router;html=1;dashed=0;fillColor=#10739E;strokeColor=#ffffff;strokeWidth=2;verticalLabelPosition=bottom;verticalAlign=top;fontFamily=Helvetica;fontSize=36;fontColor=#FFB366" vertex="1" parent="1">
          <mxGeometry x="1540" y="726" width="78" height="53" as="geometry" />
        </mxCell>
        <mxCell id="8mqi0Wb3uONjZXPuttcm-2321" value="" style="shape=mxgraph.cisco.routers.router;html=1;dashed=0;fillColor=#10739E;strokeColor=#ffffff;strokeWidth=2;verticalLabelPosition=bottom;verticalAlign=top;fontFamily=Helvetica;fontSize=36;fontColor=#FFB366" vertex="1" parent="1">
          <mxGeometry x="1408" y="789" width="78" height="53" as="geometry" />
        </mxCell>
        <mxCell id="8mqi0Wb3uONjZXPuttcm-2319" value="" style="shape=mxgraph.cisco.routers.router;html=1;dashed=0;fillColor=#10739E;strokeColor=#ffffff;strokeWidth=2;verticalLabelPosition=bottom;verticalAlign=top;fontFamily=Helvetica;fontSize=36;fontColor=#FFB366" vertex="1" parent="1">
          <mxGeometry x="1280" y="755.25" width="78" height="53" as="geometry" />
        </mxCell>
        <mxCell id="8mqi0Wb3uONjZXPuttcm-2385" value="" style="rounded=1;whiteSpace=wrap;html=1;strokeColor=none;fillColor=#BAC8D3;fontSize=24;fontColor=#23445D;align=center;opacity=60;" vertex="1" parent="1">
          <mxGeometry x="1333" y="60" width="677" height="480" as="geometry" />
        </mxCell>
        <mxCell id="8mqi0Wb3uONjZXPuttcm-2317" value="" style="shape=mxgraph.cisco.routers.router;html=1;dashed=0;fillColor=#10739E;strokeColor=#ffffff;strokeWidth=2;verticalLabelPosition=bottom;verticalAlign=top;fontFamily=Helvetica;fontSize=36;fontColor=#FFB366" vertex="1" parent="1">
          <mxGeometry x="1118" y="394.5" width="78" height="53" as="geometry" />
        </mxCell>
        <mxCell id="8mqi0Wb3uONjZXPuttcm-2402" value="" style="shape=mxgraph.cisco.servers.fileserver;html=1;dashed=0;fillColor=#10739E;strokeColor=#ffffff;strokeWidth=2;verticalLabelPosition=bottom;verticalAlign=top;fontFamily=Helvetica;fontSize=36;fontColor=#FFB366" vertex="1" parent="1">
          <mxGeometry x="1783" y="195.5" width="43" height="62" as="geometry" />
        </mxCell>
        <mxCell id="8mqi0Wb3uONjZXPuttcm-2410" style="rounded=1;html=1;strokeColor=#23445D;endArrow=none;endFill=0;strokeWidth=4;entryX=0.625;entryY=0.549;entryDx=0;entryDy=0;entryPerimeter=0;exitX=0.562;exitY=0.544;exitDx=0;exitDy=0;exitPerimeter=0;" edge="1" parent="1" source="8mqi0Wb3uONjZXPuttcm-2388" target="8mqi0Wb3uONjZXPuttcm-2386">
          <mxGeometry relative="1" as="geometry">
            <mxPoint x="1657" y="649" as="sourcePoint" />
            <mxPoint x="1450" y="430" as="targetPoint" />
          </mxGeometry>
        </mxCell>
        <mxCell id="8mqi0Wb3uONjZXPuttcm-2411" style="rounded=1;html=1;strokeColor=#23445D;endArrow=none;endFill=0;strokeWidth=4;entryX=0.468;entryY=0.507;entryDx=0;entryDy=0;entryPerimeter=0;exitX=0.536;exitY=0.417;exitDx=0;exitDy=0;exitPerimeter=0;" edge="1" parent="1" source="8mqi0Wb3uONjZXPuttcm-2390" target="8mqi0Wb3uONjZXPuttcm-2388">
          <mxGeometry relative="1" as="geometry">
            <mxPoint x="1737" y="689" as="sourcePoint" />
            <mxPoint x="1530" y="470" as="targetPoint" />
          </mxGeometry>
        </mxCell>
        <mxCell id="8mqi0Wb3uONjZXPuttcm-2412" style="rounded=1;html=1;strokeColor=#23445D;endArrow=none;endFill=0;strokeWidth=4;entryX=0.469;entryY=0.39;entryDx=0;entryDy=0;entryPerimeter=0;exitX=0.392;exitY=0.505;exitDx=0;exitDy=0;exitPerimeter=0;" edge="1" parent="1" source="8mqi0Wb3uONjZXPuttcm-2389" target="8mqi0Wb3uONjZXPuttcm-2387">
          <mxGeometry relative="1" as="geometry">
            <mxPoint x="1817" y="689" as="sourcePoint" />
            <mxPoint x="1610" y="470" as="targetPoint" />
          </mxGeometry>
        </mxCell>
        <mxCell id="8mqi0Wb3uONjZXPuttcm-2413" style="rounded=1;html=1;strokeColor=#23445D;endArrow=none;endFill=0;strokeWidth=4;entryX=0.44;entryY=0.426;entryDx=0;entryDy=0;entryPerimeter=0;exitX=0.479;exitY=0.435;exitDx=0;exitDy=0;exitPerimeter=0;" edge="1" parent="1" source="8mqi0Wb3uONjZXPuttcm-2390" target="8mqi0Wb3uONjZXPuttcm-2387">
          <mxGeometry relative="1" as="geometry">
            <mxPoint x="1797" y="659" as="sourcePoint" />
            <mxPoint x="1590" y="440" as="targetPoint" />
          </mxGeometry>
        </mxCell>
        <mxCell id="8mqi0Wb3uONjZXPuttcm-2414" style="rounded=1;html=1;strokeColor=#23445D;endArrow=none;endFill=0;strokeWidth=4;entryX=0.6;entryY=0.544;entryDx=0;entryDy=0;entryPerimeter=0;exitX=0.525;exitY=0.487;exitDx=0;exitDy=0;exitPerimeter=0;" edge="1" parent="1" source="8mqi0Wb3uONjZXPuttcm-2389" target="8mqi0Wb3uONjZXPuttcm-2388">
          <mxGeometry relative="1" as="geometry">
            <mxPoint x="1857" y="659" as="sourcePoint" />
            <mxPoint x="1650" y="440" as="targetPoint" />
          </mxGeometry>
        </mxCell>
        <mxCell id="8mqi0Wb3uONjZXPuttcm-2415" style="rounded=1;html=1;strokeColor=#23445D;endArrow=none;endFill=0;strokeWidth=4;exitX=0.417;exitY=0.45;exitDx=0;exitDy=0;exitPerimeter=0;" edge="1" parent="1" source="8mqi0Wb3uONjZXPuttcm-2391" target="8mqi0Wb3uONjZXPuttcm-2389">
          <mxGeometry relative="1" as="geometry">
            <mxPoint x="1887" y="609" as="sourcePoint" />
            <mxPoint x="1680" y="390" as="targetPoint" />
          </mxGeometry>
        </mxCell>
        <mxCell id="8mqi0Wb3uONjZXPuttcm-2416" style="rounded=1;html=1;strokeColor=#23445D;endArrow=none;endFill=0;strokeWidth=4;entryX=0.525;entryY=0.432;entryDx=0;entryDy=0;entryPerimeter=0;exitX=0.525;exitY=0.435;exitDx=0;exitDy=0;exitPerimeter=0;" edge="1" parent="1" source="8mqi0Wb3uONjZXPuttcm-2392" target="8mqi0Wb3uONjZXPuttcm-2389">
          <mxGeometry relative="1" as="geometry">
            <mxPoint x="1947" y="559" as="sourcePoint" />
            <mxPoint x="1740" y="340" as="targetPoint" />
          </mxGeometry>
        </mxCell>
        <mxCell id="8mqi0Wb3uONjZXPuttcm-2417" style="rounded=1;html=1;strokeColor=#23445D;endArrow=none;endFill=0;strokeWidth=4;entryX=0.602;entryY=0.345;entryDx=0;entryDy=0;entryPerimeter=0;exitX=0.506;exitY=0.525;exitDx=0;exitDy=0;exitPerimeter=0;" edge="1" parent="1" source="8mqi0Wb3uONjZXPuttcm-2392" target="8mqi0Wb3uONjZXPuttcm-2390">
          <mxGeometry relative="1" as="geometry">
            <mxPoint x="1927" y="659" as="sourcePoint" />
            <mxPoint x="1720" y="440" as="targetPoint" />
          </mxGeometry>
        </mxCell>
        <mxCell id="8mqi0Wb3uONjZXPuttcm-2418" style="rounded=1;html=1;strokeColor=#23445D;endArrow=none;endFill=0;strokeWidth=4;entryX=0.527;entryY=0.29;entryDx=0;entryDy=0;entryPerimeter=0;exitX=0.515;exitY=0.578;exitDx=0;exitDy=0;exitPerimeter=0;" edge="1" parent="1" source="8mqi0Wb3uONjZXPuttcm-2393" target="8mqi0Wb3uONjZXPuttcm-2390">
          <mxGeometry relative="1" as="geometry">
            <mxPoint x="1887" y="649" as="sourcePoint" />
            <mxPoint x="1680" y="430" as="targetPoint" />
          </mxGeometry>
        </mxCell>
        <mxCell id="8mqi0Wb3uONjZXPuttcm-2419" style="rounded=1;html=1;strokeColor=#23445D;endArrow=none;endFill=0;strokeWidth=4;entryX=0.536;entryY=0.472;entryDx=0;entryDy=0;entryPerimeter=0;exitX=0.402;exitY=0.508;exitDx=0;exitDy=0;exitPerimeter=0;" edge="1" parent="1" source="8mqi0Wb3uONjZXPuttcm-2394" target="8mqi0Wb3uONjZXPuttcm-2390">
          <mxGeometry relative="1" as="geometry">
            <mxPoint x="2097" y="839" as="sourcePoint" />
            <mxPoint x="1890" y="620" as="targetPoint" />
          </mxGeometry>
        </mxCell>
        <mxCell id="8mqi0Wb3uONjZXPuttcm-2420" style="rounded=1;html=1;strokeColor=#23445D;endArrow=none;endFill=0;strokeWidth=4;entryX=0.496;entryY=0.541;entryDx=0;entryDy=0;entryPerimeter=0;exitX=0.506;exitY=0.487;exitDx=0;exitDy=0;exitPerimeter=0;" edge="1" parent="1" source="8mqi0Wb3uONjZXPuttcm-2393" target="8mqi0Wb3uONjZXPuttcm-2389">
          <mxGeometry relative="1" as="geometry">
            <mxPoint x="1897" y="549" as="sourcePoint" />
            <mxPoint x="1690" y="330" as="targetPoint" />
          </mxGeometry>
        </mxCell>
        <mxCell id="8mqi0Wb3uONjZXPuttcm-2421" style="rounded=1;html=1;strokeColor=#23445D;endArrow=none;endFill=0;strokeWidth=4;entryX=0.411;entryY=0.141;entryDx=0;entryDy=0;entryPerimeter=0;exitX=0.468;exitY=0.417;exitDx=0;exitDy=0;exitPerimeter=0;" edge="1" parent="1" source="8mqi0Wb3uONjZXPuttcm-2394" target="8mqi0Wb3uONjZXPuttcm-2389">
          <mxGeometry relative="1" as="geometry">
            <mxPoint x="1877" y="659" as="sourcePoint" />
            <mxPoint x="1670" y="440" as="targetPoint" />
          </mxGeometry>
        </mxCell>
        <mxCell id="8mqi0Wb3uONjZXPuttcm-2422" style="rounded=1;html=1;strokeColor=#23445D;endArrow=none;endFill=0;strokeWidth=4;entryX=0.536;entryY=0.29;entryDx=0;entryDy=0;entryPerimeter=0;exitX=0.502;exitY=0.45;exitDx=0;exitDy=0;exitPerimeter=0;" edge="1" parent="1" source="8mqi0Wb3uONjZXPuttcm-2391" target="8mqi0Wb3uONjZXPuttcm-2390">
          <mxGeometry relative="1" as="geometry">
            <mxPoint x="2017" y="739" as="sourcePoint" />
            <mxPoint x="1810" y="520" as="targetPoint" />
          </mxGeometry>
        </mxCell>
        <mxCell id="8mqi0Wb3uONjZXPuttcm-2425" style="rounded=1;html=1;strokeColor=#23445D;endArrow=none;endFill=0;strokeWidth=4;entryX=0.568;entryY=0.359;entryDx=0;entryDy=0;entryPerimeter=0;exitX=0.501;exitY=0.406;exitDx=0;exitDy=0;exitPerimeter=0;" edge="1" parent="1" source="8mqi0Wb3uONjZXPuttcm-2399" target="8mqi0Wb3uONjZXPuttcm-2391">
          <mxGeometry relative="1" as="geometry">
            <mxPoint x="1887" y="429" as="sourcePoint" />
            <mxPoint x="1680" y="210" as="targetPoint" />
          </mxGeometry>
        </mxCell>
        <mxCell id="8mqi0Wb3uONjZXPuttcm-2426" style="rounded=1;html=1;strokeColor=#23445D;endArrow=none;endFill=0;strokeWidth=4;entryX=0.578;entryY=0.341;entryDx=0;entryDy=0;entryPerimeter=0;exitX=0.444;exitY=0.394;exitDx=0;exitDy=0;exitPerimeter=0;" edge="1" parent="1" source="8mqi0Wb3uONjZXPuttcm-2400" target="8mqi0Wb3uONjZXPuttcm-2391">
          <mxGeometry relative="1" as="geometry">
            <mxPoint x="1917" y="399" as="sourcePoint" />
            <mxPoint x="1710" y="180" as="targetPoint" />
          </mxGeometry>
        </mxCell>
        <mxCell id="8mqi0Wb3uONjZXPuttcm-2427" style="rounded=1;html=1;strokeColor=#23445D;endArrow=none;endFill=0;strokeWidth=4;entryX=0.657;entryY=0.38;entryDx=0;entryDy=0;entryPerimeter=0;exitX=0.516;exitY=0.385;exitDx=0;exitDy=0;exitPerimeter=0;" edge="1" parent="1" source="8mqi0Wb3uONjZXPuttcm-2401" target="8mqi0Wb3uONjZXPuttcm-2392">
          <mxGeometry relative="1" as="geometry">
            <mxPoint x="1927" y="489" as="sourcePoint" />
            <mxPoint x="1720" y="270" as="targetPoint" />
          </mxGeometry>
        </mxCell>
        <mxCell id="8mqi0Wb3uONjZXPuttcm-2428" style="rounded=1;html=1;strokeColor=#23445D;endArrow=none;endFill=0;strokeWidth=4;entryX=0.581;entryY=0.344;entryDx=0;entryDy=0;entryPerimeter=0;" edge="1" parent="1" source="8mqi0Wb3uONjZXPuttcm-2402" target="8mqi0Wb3uONjZXPuttcm-2392">
          <mxGeometry relative="1" as="geometry">
            <mxPoint x="1987" y="469" as="sourcePoint" />
            <mxPoint x="1780" y="250" as="targetPoint" />
          </mxGeometry>
        </mxCell>
        <mxCell id="8mqi0Wb3uONjZXPuttcm-2429" style="rounded=1;html=1;strokeColor=#23445D;endArrow=none;endFill=0;strokeWidth=4;entryX=0.591;entryY=0.451;entryDx=0;entryDy=0;entryPerimeter=0;exitX=0.516;exitY=0.381;exitDx=0;exitDy=0;exitPerimeter=0;" edge="1" parent="1" source="8mqi0Wb3uONjZXPuttcm-2403" target="8mqi0Wb3uONjZXPuttcm-2393">
          <mxGeometry relative="1" as="geometry">
            <mxPoint x="2017" y="549" as="sourcePoint" />
            <mxPoint x="1810" y="330" as="targetPoint" />
          </mxGeometry>
        </mxCell>
        <mxCell id="8mqi0Wb3uONjZXPuttcm-2430" style="rounded=1;html=1;strokeColor=#23445D;endArrow=none;endFill=0;strokeWidth=4;entryX=0.581;entryY=0.524;entryDx=0;entryDy=0;entryPerimeter=0;exitX=0.552;exitY=0.503;exitDx=0;exitDy=0;exitPerimeter=0;" edge="1" parent="1" source="8mqi0Wb3uONjZXPuttcm-2404" target="8mqi0Wb3uONjZXPuttcm-2393">
          <mxGeometry relative="1" as="geometry">
            <mxPoint x="1907" y="370" as="sourcePoint" />
            <mxPoint x="1830" y="394" as="targetPoint" />
          </mxGeometry>
        </mxCell>
        <mxCell id="8mqi0Wb3uONjZXPuttcm-2431" style="rounded=1;html=1;strokeColor=#23445D;endArrow=none;endFill=0;strokeWidth=4;entryX=0.553;entryY=0.526;entryDx=0;entryDy=0;entryPerimeter=0;exitX=0.558;exitY=0.479;exitDx=0;exitDy=0;exitPerimeter=0;" edge="1" parent="1" source="8mqi0Wb3uONjZXPuttcm-2405" target="8mqi0Wb3uONjZXPuttcm-2394">
          <mxGeometry relative="1" as="geometry">
            <mxPoint x="1957" y="420" as="sourcePoint" />
            <mxPoint x="1880" y="444" as="targetPoint" />
          </mxGeometry>
        </mxCell>
        <mxCell id="8mqi0Wb3uONjZXPuttcm-2432" style="rounded=1;html=1;strokeColor=#23445D;endArrow=none;endFill=0;strokeWidth=4;exitX=0.452;exitY=0.475;exitDx=0;exitDy=0;exitPerimeter=0;entryX=0.506;entryY=0.526;entryDx=0;entryDy=0;entryPerimeter=0;" edge="1" parent="1" source="8mqi0Wb3uONjZXPuttcm-2406" target="8mqi0Wb3uONjZXPuttcm-2394">
          <mxGeometry relative="1" as="geometry">
            <mxPoint x="1997" y="420" as="sourcePoint" />
            <mxPoint x="1920" y="444" as="targetPoint" />
          </mxGeometry>
        </mxCell>
        <mxCell id="8mqi0Wb3uONjZXPuttcm-2409" style="rounded=1;html=1;strokeColor=#23445D;endArrow=none;endFill=0;strokeWidth=4;exitX=0.478;exitY=0.48;exitDx=0;exitDy=0;exitPerimeter=0;entryX=0.438;entryY=0.463;entryDx=0;entryDy=0;entryPerimeter=0;" edge="1" parent="1" source="8mqi0Wb3uONjZXPuttcm-2387" target="8mqi0Wb3uONjZXPuttcm-2386">
          <mxGeometry relative="1" as="geometry">
            <mxPoint x="1477" y="749" as="sourcePoint" />
            <mxPoint x="1270" y="530" as="targetPoint" />
          </mxGeometry>
        </mxCell>
        <mxCell id="8mqi0Wb3uONjZXPuttcm-2392" value="" style="shape=mxgraph.cisco.switches.workgroup_switch;html=1;dashed=0;fillColor=#10739E;strokeColor=#ffffff;strokeWidth=2;verticalLabelPosition=bottom;verticalAlign=top;fontFamily=Helvetica;fontSize=36;fontColor=#FFB366" vertex="1" parent="1">
          <mxGeometry x="1650" y="240" width="96" height="50" as="geometry" />
        </mxCell>
        <mxCell id="8mqi0Wb3uONjZXPuttcm-2391" value="" style="shape=mxgraph.cisco.switches.workgroup_switch;html=1;dashed=0;fillColor=#10739E;strokeColor=#ffffff;strokeWidth=2;verticalLabelPosition=bottom;verticalAlign=top;fontFamily=Helvetica;fontSize=36;fontColor=#FFB366" vertex="1" parent="1">
          <mxGeometry x="1574" y="176.5" width="96" height="50" as="geometry" />
        </mxCell>
        <mxCell id="8mqi0Wb3uONjZXPuttcm-2393" value="" style="shape=mxgraph.cisco.switches.workgroup_switch;html=1;dashed=0;fillColor=#10739E;strokeColor=#ffffff;strokeWidth=2;verticalLabelPosition=bottom;verticalAlign=top;fontFamily=Helvetica;fontSize=36;fontColor=#FFB366" vertex="1" parent="1">
          <mxGeometry x="1730" y="351" width="96" height="50" as="geometry" />
        </mxCell>
        <mxCell id="8mqi0Wb3uONjZXPuttcm-2394" value="" style="shape=mxgraph.cisco.switches.workgroup_switch;html=1;dashed=0;fillColor=#10739E;strokeColor=#ffffff;strokeWidth=2;verticalLabelPosition=bottom;verticalAlign=top;fontFamily=Helvetica;fontSize=36;fontColor=#FFB366" vertex="1" parent="1">
          <mxGeometry x="1810" y="424.5" width="96" height="50" as="geometry" />
        </mxCell>
        <mxCell id="8mqi0Wb3uONjZXPuttcm-2403" value="" style="shape=mxgraph.cisco.servers.fileserver;html=1;dashed=0;fillColor=#10739E;strokeColor=#ffffff;strokeWidth=2;verticalLabelPosition=bottom;verticalAlign=top;fontFamily=Helvetica;fontSize=36;fontColor=#FFB366" vertex="1" parent="1">
          <mxGeometry x="1810" y="261.75" width="43" height="62" as="geometry" />
        </mxCell>
        <mxCell id="8mqi0Wb3uONjZXPuttcm-2404" value="" style="shape=mxgraph.cisco.servers.fileserver;html=1;dashed=0;fillColor=#10739E;strokeColor=#ffffff;strokeWidth=2;verticalLabelPosition=bottom;verticalAlign=top;fontFamily=Helvetica;fontSize=36;fontColor=#FFB366" vertex="1" parent="1">
          <mxGeometry x="1863" y="303.25" width="43" height="62" as="geometry" />
        </mxCell>
        <mxCell id="8mqi0Wb3uONjZXPuttcm-2405" value="" style="shape=mxgraph.cisco.servers.fileserver;html=1;dashed=0;fillColor=#10739E;strokeColor=#ffffff;strokeWidth=2;verticalLabelPosition=bottom;verticalAlign=top;fontFamily=Helvetica;fontSize=36;fontColor=#FFB366" vertex="1" parent="1">
          <mxGeometry x="1920" y="352" width="43" height="62" as="geometry" />
        </mxCell>
        <mxCell id="8mqi0Wb3uONjZXPuttcm-2406" value="" style="shape=mxgraph.cisco.servers.fileserver;html=1;dashed=0;fillColor=#10739E;strokeColor=#ffffff;strokeWidth=2;verticalLabelPosition=bottom;verticalAlign=top;fontFamily=Helvetica;fontSize=36;fontColor=#FFB366" vertex="1" parent="1">
          <mxGeometry x="1930" y="432.25" width="43" height="62" as="geometry" />
        </mxCell>
        <mxCell id="8mqi0Wb3uONjZXPuttcm-2401" value="" style="shape=mxgraph.cisco.servers.fileserver;html=1;dashed=0;fillColor=#10739E;strokeColor=#ffffff;strokeWidth=2;verticalLabelPosition=bottom;verticalAlign=top;fontFamily=Helvetica;fontSize=36;fontColor=#FFB366" vertex="1" parent="1">
          <mxGeometry x="1730" y="151.5" width="43" height="62" as="geometry" />
        </mxCell>
        <mxCell id="8mqi0Wb3uONjZXPuttcm-2400" value="" style="shape=mxgraph.cisco.servers.fileserver;html=1;dashed=0;fillColor=#10739E;strokeColor=#ffffff;strokeWidth=2;verticalLabelPosition=bottom;verticalAlign=top;fontFamily=Helvetica;fontSize=36;fontColor=#FFB366" vertex="1" parent="1">
          <mxGeometry x="1684" y="110" width="43" height="62" as="geometry" />
        </mxCell>
        <mxCell id="8mqi0Wb3uONjZXPuttcm-2399" value="" style="shape=mxgraph.cisco.servers.fileserver;html=1;dashed=0;fillColor=#10739E;strokeColor=#ffffff;strokeWidth=2;verticalLabelPosition=bottom;verticalAlign=top;fontFamily=Helvetica;fontSize=36;fontColor=#FFB366" vertex="1" parent="1">
          <mxGeometry x="1627" y="82" width="43" height="62" as="geometry" />
        </mxCell>
        <mxCell id="8mqi0Wb3uONjZXPuttcm-2434" style="rounded=1;html=1;strokeColor=#23445D;endArrow=none;endFill=0;strokeWidth=4;entryX=0.431;entryY=0.484;entryDx=0;entryDy=0;entryPerimeter=0;exitX=0.493;exitY=0.549;exitDx=0;exitDy=0;exitPerimeter=0;" edge="1" parent="1" source="8mqi0Wb3uONjZXPuttcm-2318" target="8mqi0Wb3uONjZXPuttcm-2386">
          <mxGeometry relative="1" as="geometry">
            <mxPoint x="1567" y="819" as="sourcePoint" />
            <mxPoint x="1360" y="600" as="targetPoint" />
          </mxGeometry>
        </mxCell>
        <mxCell id="8mqi0Wb3uONjZXPuttcm-2435" value="Content Provider Network" style="rounded=1;whiteSpace=wrap;html=1;strokeColor=none;fillColor=none;fontSize=14;fontColor=#23445D;align=center;fontStyle=1" vertex="1" parent="1">
          <mxGeometry x="1538" y="548" width="196" height="19" as="geometry" />
        </mxCell>
        <mxCell id="8mqi0Wb3uONjZXPuttcm-2436" style="rounded=1;html=1;strokeColor=#23445D;endArrow=none;endFill=0;strokeWidth=4;exitX=0.5;exitY=0.388;exitDx=0;exitDy=0;exitPerimeter=0;entryX=0.48;entryY=0.524;entryDx=0;entryDy=0;entryPerimeter=0;" edge="1" parent="1" source="8mqi0Wb3uONjZXPuttcm-2387" target="8mqi0Wb3uONjZXPuttcm-2388">
          <mxGeometry relative="1" as="geometry">
            <mxPoint x="1533" y="480" as="sourcePoint" />
            <mxPoint x="1480" y="578" as="targetPoint" />
          </mxGeometry>
        </mxCell>
        <mxCell id="8mqi0Wb3uONjZXPuttcm-2437" style="rounded=1;html=1;strokeColor=#23445D;endArrow=none;endFill=0;strokeWidth=4;exitX=0.565;exitY=0.43;exitDx=0;exitDy=0;exitPerimeter=0;entryX=0.406;entryY=0.579;entryDx=0;entryDy=0;entryPerimeter=0;" edge="1" parent="1" source="8mqi0Wb3uONjZXPuttcm-2389" target="8mqi0Wb3uONjZXPuttcm-2390">
          <mxGeometry relative="1" as="geometry">
            <mxPoint x="1760" y="560" as="sourcePoint" />
            <mxPoint x="1829" y="634" as="targetPoint" />
          </mxGeometry>
        </mxCell>
        <mxCell id="8mqi0Wb3uONjZXPuttcm-2388" value="" style="shape=mxgraph.cisco.switches.workgroup_switch;html=1;dashed=0;fillColor=#10739E;strokeColor=#ffffff;strokeWidth=2;verticalLabelPosition=bottom;verticalAlign=top;fontFamily=Helvetica;fontSize=36;fontColor=#FFB366" vertex="1" parent="1">
          <mxGeometry x="1470" y="450" width="96" height="50" as="geometry" />
        </mxCell>
        <mxCell id="8mqi0Wb3uONjZXPuttcm-2387" value="" style="shape=mxgraph.cisco.switches.workgroup_switch;html=1;dashed=0;fillColor=#10739E;strokeColor=#ffffff;strokeWidth=2;verticalLabelPosition=bottom;verticalAlign=top;fontFamily=Helvetica;fontSize=36;fontColor=#FFB366" vertex="1" parent="1">
          <mxGeometry x="1399" y="382.25" width="96" height="50" as="geometry" />
        </mxCell>
        <mxCell id="8mqi0Wb3uONjZXPuttcm-2389" value="" style="shape=mxgraph.cisco.switches.workgroup_switch;html=1;dashed=0;fillColor=#10739E;strokeColor=#ffffff;strokeWidth=2;verticalLabelPosition=bottom;verticalAlign=top;fontFamily=Helvetica;fontSize=36;fontColor=#FFB366" vertex="1" parent="1">
          <mxGeometry x="1520" y="323.75" width="96" height="50" as="geometry" />
        </mxCell>
        <mxCell id="8mqi0Wb3uONjZXPuttcm-2390" value="" style="shape=mxgraph.cisco.switches.workgroup_switch;html=1;dashed=0;fillColor=#10739E;strokeColor=#ffffff;strokeWidth=2;verticalLabelPosition=bottom;verticalAlign=top;fontFamily=Helvetica;fontSize=36;fontColor=#FFB366" vertex="1" parent="1">
          <mxGeometry x="1588" y="394.5" width="96" height="50" as="geometry" />
        </mxCell>
        <mxCell id="8mqi0Wb3uONjZXPuttcm-2318" value="" style="shape=mxgraph.cisco.routers.router;html=1;dashed=0;fillColor=#10739E;strokeColor=#ffffff;strokeWidth=2;verticalLabelPosition=bottom;verticalAlign=top;fontFamily=Helvetica;fontSize=36;fontColor=#FFB366" vertex="1" parent="1">
          <mxGeometry x="1330" y="605" width="78" height="53" as="geometry" />
        </mxCell>
        <mxCell id="8mqi0Wb3uONjZXPuttcm-2440" value="Internet Exchange Point" style="rounded=1;whiteSpace=wrap;html=1;strokeColor=none;fillColor=none;fontSize=14;fontColor=#23445D;align=center;fontStyle=1" vertex="1" parent="1">
          <mxGeometry x="1021" y="746.5" width="196" height="19" as="geometry" />
        </mxCell>
        <mxCell id="8mqi0Wb3uONjZXPuttcm-2443" style="rounded=1;html=1;strokeColor=#23445D;endArrow=none;endFill=0;strokeWidth=4;entryX=0.458;entryY=0.518;entryDx=0;entryDy=0;entryPerimeter=0;exitX=0.428;exitY=0.421;exitDx=0;exitDy=0;exitPerimeter=0;" edge="1" parent="1" source="8mqi0Wb3uONjZXPuttcm-2442" target="8mqi0Wb3uONjZXPuttcm-2386">
          <mxGeometry relative="1" as="geometry">
            <mxPoint x="1567" y="879" as="sourcePoint" />
            <mxPoint x="1360" y="660" as="targetPoint" />
          </mxGeometry>
        </mxCell>
        <mxCell id="8mqi0Wb3uONjZXPuttcm-2444" style="rounded=1;html=1;strokeColor=#23445D;endArrow=none;endFill=0;strokeWidth=4;entryX=0.662;entryY=0.549;entryDx=0;entryDy=0;entryPerimeter=0;exitX=0.487;exitY=0.453;exitDx=0;exitDy=0;exitPerimeter=0;" edge="1" parent="1" source="8mqi0Wb3uONjZXPuttcm-2304" target="8mqi0Wb3uONjZXPuttcm-2442">
          <mxGeometry relative="1" as="geometry">
            <mxPoint x="1377" y="847.5" as="sourcePoint" />
            <mxPoint x="1170" y="628.5" as="targetPoint" />
          </mxGeometry>
        </mxCell>
        <mxCell id="8mqi0Wb3uONjZXPuttcm-2446" style="rounded=1;html=1;strokeColor=#23445D;endArrow=none;endFill=0;strokeWidth=4;entryX=0.528;entryY=0.637;entryDx=0;entryDy=0;entryPerimeter=0;exitX=0.707;exitY=0.627;exitDx=0;exitDy=0;exitPerimeter=0;" edge="1" parent="1" source="8mqi0Wb3uONjZXPuttcm-2304" target="8mqi0Wb3uONjZXPuttcm-2303">
          <mxGeometry relative="1" as="geometry">
            <mxPoint x="1347" y="877.5" as="sourcePoint" />
            <mxPoint x="1140" y="658.5" as="targetPoint" />
          </mxGeometry>
        </mxCell>
        <mxCell id="8mqi0Wb3uONjZXPuttcm-2447" style="rounded=1;html=1;strokeColor=#23445D;endArrow=none;endFill=0;strokeWidth=4;entryX=0.516;entryY=0.418;entryDx=0;entryDy=0;entryPerimeter=0;exitX=0.454;exitY=0.549;exitDx=0;exitDy=0;exitPerimeter=0;" edge="1" parent="1" source="8mqi0Wb3uONjZXPuttcm-2442" target="8mqi0Wb3uONjZXPuttcm-2303">
          <mxGeometry relative="1" as="geometry">
            <mxPoint x="1417" y="917.5" as="sourcePoint" />
            <mxPoint x="1210" y="698.5" as="targetPoint" />
          </mxGeometry>
        </mxCell>
        <mxCell id="8mqi0Wb3uONjZXPuttcm-2303" value="" style="shape=mxgraph.cisco.routers.router;html=1;dashed=0;fillColor=#10739E;strokeColor=#ffffff;strokeWidth=2;verticalLabelPosition=bottom;verticalAlign=top;fontFamily=Helvetica;fontSize=36;fontColor=#FFB366" vertex="1" parent="1">
          <mxGeometry x="1030" y="603.75" width="70" height="47.5" as="geometry" />
        </mxCell>
        <mxCell id="8mqi0Wb3uONjZXPuttcm-2442" value="" style="shape=mxgraph.cisco.routers.router;html=1;dashed=0;fillColor=#10739E;strokeColor=#ffffff;strokeWidth=2;verticalLabelPosition=bottom;verticalAlign=top;fontFamily=Helvetica;fontSize=36;fontColor=#FFB366" vertex="1" parent="1">
          <mxGeometry x="1123.5" y="557" width="67" height="50" as="geometry" />
        </mxCell>
        <mxCell id="8mqi0Wb3uONjZXPuttcm-2304" value="" style="shape=mxgraph.cisco.routers.router;html=1;dashed=0;fillColor=#10739E;strokeColor=#ffffff;strokeWidth=2;verticalLabelPosition=bottom;verticalAlign=top;fontFamily=Helvetica;fontSize=36;fontColor=#FFB366" vertex="1" parent="1">
          <mxGeometry x="1150" y="647" width="67" height="50" as="geometry" />
        </mxCell>
        <mxCell id="8mqi0Wb3uONjZXPuttcm-2386" value="" style="shape=mxgraph.cisco.routers.router;html=1;dashed=0;fillColor=#10739E;strokeColor=#ffffff;strokeWidth=2;verticalLabelPosition=bottom;verticalAlign=top;fontFamily=Helvetica;fontSize=36;fontColor=#FFB366" vertex="1" parent="1">
          <mxGeometry x="1358" y="479" width="78" height="53" as="geometry" />
        </mxCell>
        <mxCell id="8mqi0Wb3uONjZXPuttcm-2457" value="" style="rounded=1;whiteSpace=wrap;html=1;strokeColor=none;fillColor=#BAC8D3;fontSize=24;fontColor=#23445D;align=center;opacity=60;" vertex="1" parent="1">
          <mxGeometry x="900" y="825" width="287.5" height="160" as="geometry" />
        </mxCell>
        <mxCell id="8mqi0Wb3uONjZXPuttcm-2458" value="Regional ISP" style="rounded=1;whiteSpace=wrap;html=1;strokeColor=none;fillColor=none;fontSize=14;fontColor=#23445D;align=center;fontStyle=1" vertex="1" parent="1">
          <mxGeometry x="965" y="994" width="196" height="19" as="geometry" />
        </mxCell>
        <mxCell id="8mqi0Wb3uONjZXPuttcm-2459" style="edgeStyle=none;rounded=1;html=1;strokeColor=#23445D;endArrow=none;endFill=0;strokeWidth=4;entryX=0.484;entryY=0.443;entryDx=0;entryDy=0;entryPerimeter=0;exitX=0.503;exitY=0.453;exitDx=0;exitDy=0;exitPerimeter=0;" edge="1" parent="1" source="8mqi0Wb3uONjZXPuttcm-2464" target="8mqi0Wb3uONjZXPuttcm-2462">
          <mxGeometry relative="1" as="geometry">
            <mxPoint x="1132.5" y="1005" as="sourcePoint" />
            <mxPoint x="1047.5" y="1124" as="targetPoint" />
          </mxGeometry>
        </mxCell>
        <mxCell id="8mqi0Wb3uONjZXPuttcm-2460" style="edgeStyle=none;rounded=1;html=1;strokeColor=#23445D;endArrow=none;endFill=0;strokeWidth=4;entryX=0.474;entryY=0.665;entryDx=0;entryDy=0;entryPerimeter=0;exitX=0.744;exitY=0.594;exitDx=0;exitDy=0;exitPerimeter=0;" edge="1" parent="1" source="8mqi0Wb3uONjZXPuttcm-2464" target="8mqi0Wb3uONjZXPuttcm-2463">
          <mxGeometry relative="1" as="geometry">
            <mxPoint x="1172.5" y="1055" as="sourcePoint" />
            <mxPoint x="1087.5" y="1174" as="targetPoint" />
          </mxGeometry>
        </mxCell>
        <mxCell id="8mqi0Wb3uONjZXPuttcm-2461" style="edgeStyle=none;rounded=1;html=1;strokeColor=#23445D;endArrow=none;endFill=0;strokeWidth=4;entryX=0.628;entryY=0.608;entryDx=0;entryDy=0;entryPerimeter=0;exitX=0.683;exitY=0.406;exitDx=0;exitDy=0;exitPerimeter=0;" edge="1" parent="1" source="8mqi0Wb3uONjZXPuttcm-2463" target="8mqi0Wb3uONjZXPuttcm-2462">
          <mxGeometry relative="1" as="geometry">
            <mxPoint x="1222.5" y="1085" as="sourcePoint" />
            <mxPoint x="1137.5" y="1204" as="targetPoint" />
          </mxGeometry>
        </mxCell>
        <mxCell id="8mqi0Wb3uONjZXPuttcm-2462" value="" style="shape=mxgraph.cisco.routers.router;html=1;dashed=0;fillColor=#10739E;strokeColor=#ffffff;strokeWidth=2;verticalLabelPosition=bottom;verticalAlign=top;fontFamily=Helvetica;fontSize=36;fontColor=#FFB366" vertex="1" parent="1">
          <mxGeometry x="945.5" y="923" width="78" height="53" as="geometry" />
        </mxCell>
        <mxCell id="8mqi0Wb3uONjZXPuttcm-2464" value="" style="shape=mxgraph.cisco.routers.router;html=1;dashed=0;fillColor=#10739E;strokeColor=#ffffff;strokeWidth=2;verticalLabelPosition=bottom;verticalAlign=top;fontFamily=Helvetica;fontSize=36;fontColor=#FFB366" vertex="1" parent="1">
          <mxGeometry x="986.5" y="835" width="78" height="53" as="geometry" />
        </mxCell>
        <mxCell id="8mqi0Wb3uONjZXPuttcm-2465" style="edgeStyle=none;rounded=1;html=1;strokeColor=#23445D;endArrow=none;endFill=0;strokeWidth=4;exitX=0.442;exitY=0.368;exitDx=0;exitDy=0;exitPerimeter=0;" edge="1" parent="1" source="2133" target="8mqi0Wb3uONjZXPuttcm-2288">
          <mxGeometry relative="1" as="geometry">
            <mxPoint x="721" y="660" as="sourcePoint" />
            <mxPoint x="580" y="708" as="targetPoint" />
          </mxGeometry>
        </mxCell>
        <mxCell id="2133" value="" style="shape=mxgraph.cisco.routers.router;html=1;dashed=0;fillColor=#10739E;strokeColor=#ffffff;strokeWidth=2;verticalLabelPosition=bottom;verticalAlign=top;fontFamily=Helvetica;fontSize=36;fontColor=#FFB366" parent="1" vertex="1">
          <mxGeometry x="620" y="597" width="78" height="53" as="geometry" />
        </mxCell>
        <mxCell id="8mqi0Wb3uONjZXPuttcm-2466" style="edgeStyle=none;rounded=1;html=1;strokeColor=#23445D;endArrow=none;endFill=0;strokeWidth=4;entryX=0.458;entryY=0.415;entryDx=0;entryDy=0;entryPerimeter=0;exitX=0.439;exitY=0.605;exitDx=0;exitDy=0;exitPerimeter=0;" edge="1" parent="1" source="8mqi0Wb3uONjZXPuttcm-2303" target="8mqi0Wb3uONjZXPuttcm-2463">
          <mxGeometry relative="1" as="geometry">
            <mxPoint x="1222" y="990" as="sourcePoint" />
            <mxPoint x="1080" y="1038" as="targetPoint" />
          </mxGeometry>
        </mxCell>
        <mxCell id="8mqi0Wb3uONjZXPuttcm-2463" value="" style="shape=mxgraph.cisco.routers.router;html=1;dashed=0;fillColor=#10739E;strokeColor=#ffffff;strokeWidth=2;verticalLabelPosition=bottom;verticalAlign=top;fontFamily=Helvetica;fontSize=36;fontColor=#FFB366" vertex="1" parent="1">
          <mxGeometry x="1082.5" y="885" width="78" height="53" as="geometry" />
        </mxCell>
        <mxCell id="8mqi0Wb3uONjZXPuttcm-2468" style="rounded=1;html=1;strokeColor=#23445D;endArrow=none;endFill=0;strokeWidth=4;entryX=0.506;entryY=0.439;entryDx=0;entryDy=0;entryPerimeter=0;exitX=0.455;exitY=0.571;exitDx=0;exitDy=0;exitPerimeter=0;" edge="1" parent="1" source="8mqi0Wb3uONjZXPuttcm-2464" target="8mqi0Wb3uONjZXPuttcm-2298">
          <mxGeometry relative="1" as="geometry">
            <mxPoint x="1148" y="740" as="sourcePoint" />
            <mxPoint x="1040" y="844" as="targetPoint" />
          </mxGeometry>
        </mxCell>
      </root>
    </mxGraphModel>
  </diagram>
</mxfile>
